<svg width="146" height="36" viewBox="0 0 146 36" fill="none" xmlns="http://www.w3.org/2000/svg">
<path d="M13.057 28.9599C13.057 30.3814 12.5398 32.3198 8.40296 32.3198C4.26607 32.3198 3.74896 30.3814 3.74896 28.9599V1.04736H1.93907C0.904852 1.04736 -9.15527e-05 1.95194 -9.15527e-05 2.98574V28.9599C-9.15527e-05 33.2243 2.84402 35.2919 8.40296 35.2919C13.9619 35.2919 16.806 33.0951 16.806 28.9599V1.04736H13.1862V28.9599H13.057Z" fill="white"/>
<path d="M30.509 16.5534L24.6915 1.04639H20.8132V35.291H24.4329V10.7383L29.3455 23.79C29.4748 24.1776 29.9919 24.4361 30.509 24.4361C31.0261 24.4361 31.4139 24.1776 31.6725 23.79L36.585 10.7383V35.291H40.2048V1.04639H36.3265L30.509 16.5534Z" fill="white"/>
<path d="M55.2013 2.98476C54.8134 1.82174 53.6499 1.04639 52.2279 1.04639H50.5473L42.532 35.291H46.2811L48.6081 25.4699H56.6233L58.9503 35.291H62.6994L55.2013 2.98476ZM55.9769 22.6269H49.3838L52.745 8.4122L55.9769 22.6269Z" fill="white"/>
<path d="M67.4828 34.6452V32.7068H69.8098C69.9391 32.7068 70.0684 32.836 70.0684 32.836V34.6452H67.4828Z" fill="white"/>
<path d="M70.9737 32.8357V35.4202H66.5782V31.9312H69.8102C70.4566 31.9312 70.9737 32.3188 70.9737 32.8357ZM68.3881 33.8695H69.2931V33.4818H68.3881V33.8695Z" fill="white"/>
<path d="M91.9164 35.4206H106.137V32.3192H95.6654V19.7844H103.422V16.5538H95.6654V4.019H104.586C105.361 4.019 106.008 3.37287 106.008 2.59753V0.917603H91.7871V35.4206H91.9164Z" fill="white"/>
<path d="M116.738 0.400391C109.757 0.400391 108.335 4.01869 108.335 6.99086V28.8299C108.335 31.802 109.757 35.4203 116.738 35.4203C123.719 35.4203 125.141 31.802 125.141 28.8299V24.307H123.073C122.039 24.307 121.263 25.0823 121.263 26.1161V28.9591C121.263 30.3806 120.746 32.3189 116.609 32.3189C112.472 32.3189 111.955 30.3806 111.955 28.9591V6.99086C111.955 5.56939 112.472 3.63101 116.609 3.63101C120.746 3.63101 121.263 5.56939 121.263 6.99086V9.57536C121.263 10.7384 122.168 11.643 123.332 11.643H125.141V7.12008C125.141 4.01869 123.719 0.400391 116.738 0.400391Z" fill="white"/>
<path d="M143.886 0.788039H141.559V16.5535H132.381V2.46796C132.381 1.43416 131.605 0.658813 130.571 0.658813H128.631V35.2911H132.381V19.6549H141.559V35.4203H145.308V2.20951C145.438 1.43416 144.791 0.788039 143.886 0.788039Z" fill="white"/>
<path d="M73.3005 4.14822H79.7643V35.4206H83.5134V4.14822H88.2967C89.2016 4.14822 89.9773 3.37288 89.9773 2.4683V0.917603H73.1712V4.14822H73.3005Z" fill="white"/>
</svg>
