<svg width="48" height="48" viewBox="0 0 48 48" fill="none" xmlns="http://www.w3.org/2000/svg">
<path d="M19.7213 42.9754L19.5803 43.6804L19.7162 42.9747C19.3353 42.8978 18.9654 43.1516 18.8904 43.5414C18.8153 43.9316 19.0632 44.3097 19.4444 44.3866C19.4455 44.3869 19.4561 44.3888 19.4572 44.3892C19.5019 44.3978 19.5462 44.4023 19.5902 44.4023C19.9209 44.4023 20.2157 44.1624 20.2798 43.8176C20.353 43.4271 20.1029 43.05 19.7213 42.9754Z" fill="#0D5ADE"/>
<path d="M25.0977 43.2071L25.1676 43.923L25.0955 43.2075C24.7091 43.248 24.4282 43.6014 24.4681 43.9968C24.5051 44.3672 24.8105 44.643 25.1665 44.643C25.1907 44.643 25.2152 44.6415 25.2394 44.6393L25.2588 44.637C25.6433 44.5909 25.9161 44.236 25.8733 43.8424C25.8301 43.4492 25.4822 43.1659 25.0977 43.2071Z" fill="#0D5ADE"/>
<path d="M22.4057 43.2975C22.4057 43.2975 22.3958 43.2971 22.3955 43.2971C22.008 43.2791 21.6843 43.5872 21.6667 43.9842C21.6495 44.3811 21.9542 44.7173 22.342 44.7353C22.353 44.736 22.3636 44.736 22.3746 44.736C22.7481 44.736 23.0594 44.4351 23.0763 44.049C23.0938 43.6521 22.7939 43.3155 22.4057 43.2975Z" fill="#0D5ADE"/>
<path d="M17.1242 42.2444L17.1154 42.241C16.7499 42.1069 16.3515 42.3025 16.2204 42.6766C16.0889 43.0506 16.283 43.4644 16.6485 43.599C16.7272 43.6279 16.8074 43.6413 16.8862 43.6413C17.1744 43.6413 17.445 43.4588 17.5479 43.165C17.6794 42.7909 17.4897 42.3786 17.1242 42.2444Z" fill="#0D5ADE"/>
<path d="M27.751 42.7031L27.9242 43.4006L27.7488 42.7039C27.3727 42.8028 27.1463 43.1952 27.243 43.5802C27.3247 43.9048 27.6103 44.1207 27.9234 44.1207C27.9817 44.1207 28.0406 44.1132 28.0996 44.0974C28.1025 44.0967 28.115 44.0933 28.1183 44.0926C28.4914 43.9884 28.7097 43.5959 28.6101 43.2132C28.5105 42.8309 28.1256 42.6034 27.751 42.7031Z" fill="#0D5ADE"/>
<path d="M30.2925 41.7955L30.5711 42.456L30.2903 41.7963C29.9343 41.9552 29.7713 42.3791 29.9262 42.7434C30.0416 43.0144 30.3001 43.176 30.5715 43.176C30.6649 43.176 30.7605 43.1565 30.8517 43.116C30.8546 43.1145 30.8659 43.1096 30.8689 43.1081C31.2215 42.9451 31.3772 42.5223 31.2197 42.1606C31.0622 41.7985 30.6469 41.6363 30.2925 41.7955Z" fill="#0D5ADE"/>
<path d="M14.4384 8.99059C14.5512 8.99059 14.6658 8.96285 14.7716 8.90513C15.1144 8.7181 15.2437 8.28219 15.061 7.93137C14.8782 7.58092 14.4527 7.44786 14.1099 7.63527L14.1015 7.63976C13.7591 7.8268 13.6335 8.26045 13.8162 8.61128C13.9422 8.85341 14.1868 8.99059 14.4384 8.99059Z" fill="#0D5ADE"/>
<path d="M6.30484 17.0285C6.40921 17.0843 6.52091 17.1109 6.63114 17.1109C6.88419 17.1109 7.12882 16.9708 7.25443 16.7253L7.26688 16.7001C7.43827 16.3433 7.29471 15.9119 6.94608 15.7369C6.60001 15.5622 6.1818 15.7061 6.00821 16.0581C5.82877 16.4097 5.96134 16.8441 6.30484 17.0285Z" fill="#0D5ADE"/>
<path d="M5.31545 19.7354C5.39016 19.7612 5.46596 19.7736 5.54103 19.7736C5.834 19.7736 6.10756 19.5843 6.20681 19.2845L6.21596 19.256C6.33022 18.8763 6.12185 18.4734 5.75051 18.3568C5.38247 18.2406 4.99172 18.4498 4.87416 18.8246C4.75075 19.2005 4.94814 19.6083 5.31545 19.7354Z" fill="#0D5ADE"/>
<path d="M7.69232 14.5108C7.8172 14.6037 7.96185 14.6487 8.10541 14.6487C8.32257 14.6487 8.53717 14.5456 8.6745 14.3522L8.68366 14.3395C8.90924 14.0164 8.83563 13.5681 8.52069 13.3372C8.20538 13.106 7.76593 13.1802 7.53961 13.5025L8.10614 13.9291L7.53742 13.5055C7.3089 13.8271 7.37848 14.2773 7.69232 14.5108Z" fill="#0D5ADE"/>
<path d="M12.0515 10.5449C12.1991 10.5449 12.3478 10.4973 12.4748 10.3983C12.7883 10.1637 12.8561 9.71354 12.6268 9.3927C12.3972 9.07186 11.9574 9.00252 11.6443 9.23716L11.6267 9.25027C11.3176 9.49053 11.2561 9.94293 11.4908 10.2596C11.6293 10.4463 11.8391 10.5449 12.0515 10.5449Z" fill="#0D5ADE"/>
<path d="M4.68694 30.6493C4.77996 30.9586 5.05755 31.1568 5.35784 31.1568C5.42632 31.1568 5.49627 31.1463 5.56512 31.1246C5.93426 31.0088 6.14263 30.6085 6.03203 30.2299C5.9262 29.8521 5.54351 29.6302 5.17107 29.7341C4.79644 29.8386 4.57561 30.2344 4.67779 30.6179C4.67998 30.6254 4.68474 30.6418 4.68694 30.6493Z" fill="#0D5ADE"/>
<path d="M9.92734 12.4413C10.1101 12.4413 10.2928 12.369 10.4309 12.225C10.7052 11.9439 10.7052 11.4881 10.4309 11.2074C10.1562 10.9263 9.71091 10.9263 9.43625 11.2074L9.42453 11.2194C9.1528 11.5031 9.1583 11.9582 9.43552 12.2363C9.57211 12.3735 9.74973 12.4413 9.92734 12.4413Z" fill="#0D5ADE"/>
<path d="M5.46457 27.5117C5.41513 27.1207 5.06613 26.8434 4.68381 26.8898C4.29855 26.9371 4.02316 27.295 4.06894 27.6897L4.07297 27.7186C4.12424 28.0761 4.42416 28.3325 4.7673 28.3325C4.80099 28.3325 4.83542 28.3299 4.87021 28.3246C5.2529 28.2677 5.5184 27.9033 5.46457 27.5117Z" fill="#0D5ADE"/>
<path d="M4.58106 25.4506C4.58839 25.4506 4.59534 25.451 4.6023 25.451C4.98096 25.451 5.29371 25.1425 5.30469 24.7523L5.30543 24.7216C5.30543 24.3239 4.99049 24.002 4.6023 24.002C4.21668 24.002 3.90394 24.319 3.89918 24.7122C3.88892 25.1088 4.19398 25.439 4.58106 25.4506Z" fill="#0D5ADE"/>
<path d="M4.73559 22.5647C4.7777 22.5722 4.81909 22.5759 4.86047 22.5759C5.19445 22.5759 5.49072 22.3312 5.55187 21.983C5.5537 21.9725 5.55517 21.962 5.55663 21.9515C5.6134 21.5583 5.34789 21.1925 4.96337 21.1348C4.58361 21.0771 4.22802 21.3443 4.16686 21.7319C4.10021 22.1224 4.35436 22.4946 4.73559 22.5647Z" fill="#0D5ADE"/>
<path d="M37.9029 14.738C38.0392 14.9404 38.2582 15.0487 38.4816 15.0487C38.6189 15.0487 38.758 15.0075 38.8796 14.9216C39.1993 14.6968 39.2803 14.2485 39.0605 13.9209L38.4761 14.3212L39.0583 13.9175C38.8401 13.5884 38.4028 13.5026 38.0817 13.7256C37.7601 13.9486 37.6763 14.3962 37.8942 14.7252L37.9029 14.738Z" fill="#0D5ADE"/>
<path d="M41.4936 21.9797C41.1077 22.0239 40.8301 22.3803 40.8736 22.7754L40.8773 22.8065C40.9275 23.1652 41.2285 23.4242 41.5727 23.4242C41.6057 23.4242 41.6394 23.4219 41.6731 23.4171C42.0543 23.3612 42.3202 23.0018 42.2707 22.612C42.2264 22.218 41.8771 21.9354 41.4936 21.9797Z" fill="#0D5ADE"/>
<path d="M40.3075 19.949L40.3105 19.9584C40.4006 20.2721 40.6807 20.4752 40.9847 20.4752C41.0502 20.4752 41.1169 20.4659 41.1831 20.4456C41.5559 20.3336 41.7691 19.9336 41.6596 19.5521L41.6567 19.5427C41.5472 19.1611 41.1564 18.943 40.7836 19.0554C40.4112 19.1675 40.198 19.5674 40.3075 19.949Z" fill="#0D5ADE"/>
<path d="M39.3146 17.2579C39.4373 17.5132 39.6882 17.662 39.9489 17.662C40.0526 17.662 40.158 17.6383 40.2573 17.5881C40.6055 17.4127 40.7502 16.9839 40.5784 16.6271L39.9412 16.9311L40.5777 16.6256C40.4129 16.2658 39.9943 16.111 39.6428 16.2797C39.2912 16.4483 39.1396 16.8767 39.3044 17.2365L39.3146 17.2579Z" fill="#0D5ADE"/>
<path d="M36.1321 12.4904C36.2698 12.6343 36.4518 12.7063 36.6341 12.7063C36.8117 12.7063 36.9894 12.6381 37.1263 12.5005C37.4017 12.2246 37.4079 11.7737 37.1424 11.4896C36.8791 11.1992 36.4353 11.1815 36.1504 11.4507C35.8651 11.7202 35.8475 12.1755 36.1108 12.4675L36.1321 12.4904Z" fill="#0D5ADE"/>
<path d="M41.7221 24.9846C41.3357 24.9745 41.0123 25.2845 40.9988 25.6799C40.9812 26.0738 41.2767 26.4093 41.662 26.4314C41.6755 26.4321 41.6884 26.4325 41.7019 26.4325C42.0722 26.4325 42.3823 26.136 42.4032 25.7526L42.4043 25.723C42.4153 25.3261 42.1099 24.9962 41.7221 24.9846Z" fill="#0D5ADE"/>
<path d="M31.6353 8.95671L31.6521 8.96608C31.7569 9.02306 31.8693 9.05004 31.9799 9.05004C32.23 9.05004 32.4721 8.91211 32.5991 8.67036C32.7822 8.32141 32.6533 7.88512 32.3135 7.69622L31.9733 8.3259L32.3113 7.69472C31.9707 7.50356 31.5433 7.63138 31.3566 7.97995C31.1702 8.32815 31.2947 8.76593 31.6353 8.95671Z" fill="#0D5ADE"/>
<path d="M34.0138 10.5353L34.0248 10.5439C34.1519 10.6425 34.301 10.6901 34.4493 10.6901C34.6617 10.6901 34.8715 10.5919 35.0099 10.4052C35.2447 10.0885 35.1839 9.63725 34.8748 9.39699L34.87 9.39362C34.5621 9.15149 34.1208 9.21071 33.8842 9.52593C33.6476 9.84115 33.7059 10.2932 34.0138 10.5353Z" fill="#0D5ADE"/>
<path d="M47.566 35.8793L44.2654 32.4951C43.9845 32.2073 43.6113 32.0487 43.214 32.0487C42.817 32.0487 42.4435 32.2073 42.163 32.4951L42.0864 32.5735L41.8696 32.3516C41.6019 32.0768 41.3947 31.7571 41.254 31.4089C41.2416 31.3628 41.2251 31.3178 41.2039 31.2755C41.0962 30.9659 41.0402 30.6364 41.0402 30.298V29.3407C41.1042 29.3752 41.1742 29.4003 41.2493 29.4134C41.2896 29.4205 41.3295 29.4239 41.369 29.4239C41.7026 29.4239 41.9978 29.1803 42.0597 28.834C42.1348 28.4449 41.8883 28.0667 41.5078 27.9888C41.3405 27.9546 41.1749 27.9843 41.0358 28.0615C40.9926 27.039 40.5842 26.084 39.8738 25.3553L36.6716 22.0723C35.9531 21.3358 34.9977 20.9303 33.9814 20.9303C33.1948 20.9303 32.4456 21.1743 31.8135 21.6259L31.4736 21.2762V13.0454C31.4736 12.0532 31.1217 11.096 30.483 10.3505C30.0286 9.82047 29.7784 9.13981 29.7784 8.43366V7.83059H29.8268C30.6464 7.83059 31.3132 7.14805 31.3132 6.30885V1.52174C31.3132 0.682534 30.6464 0 29.8268 0H16.6926C15.873 0 15.2062 0.682534 15.2062 1.52174V6.30885C15.2062 7.14805 15.873 7.83059 16.6926 7.83059H16.801V8.14618C16.801 8.92204 16.5062 9.65142 15.9712 10.1998L14.5536 11.6533C13.8014 12.4247 13.3872 13.4498 13.3872 14.5405V19.1833C13.3872 19.8141 13.5352 20.4097 13.7955 20.9374C12.8632 20.9925 11.9941 21.3902 11.3284 22.0723L8.12622 25.3553C7.37402 26.1267 6.95984 27.1522 6.95984 28.2425V30.298C6.95984 31.0738 6.66541 31.8032 6.13037 32.3516L5.91614 32.5712C5.91504 32.572 5.91431 32.5727 5.91357 32.5735L5.8374 32.4951C5.55652 32.2073 5.18335 32.0487 4.78601 32.0487C4.38904 32.0487 4.0155 32.2073 3.73499 32.4951L0.43396 35.8793C-0.144653 36.4726 -0.144653 37.4382 0.43396 38.0315L1.56445 39.19C1.83875 39.4715 2.28406 39.4719 2.55872 39.1912C2.83337 38.91 2.83411 38.4546 2.55945 38.1732L1.42932 37.0142C1.39746 36.9816 1.39746 36.9288 1.42932 36.8962L4.73035 33.512C4.76111 33.4805 4.81128 33.4801 4.84204 33.512L5.41589 34.1005H5.41626L13.2521 42.1342L14.1299 43.0345C14.1617 43.0671 14.1617 43.1199 14.1299 43.1525L10.8292 46.5367C10.7981 46.5686 10.7479 46.5686 10.7172 46.5367L4.55017 40.214C4.27588 39.9325 3.83057 39.9322 3.55591 40.2129C3.28088 40.494 3.28052 40.9494 3.55481 41.2309L9.72217 47.5536C10.0027 47.8415 10.3762 48 10.7736 48C11.1705 48 11.5437 47.8415 11.8246 47.5536L15.1252 44.1694C15.7039 43.5765 15.7039 42.6109 15.1252 42.0176L15.0894 41.9809L15.5057 41.554C15.9921 41.0551 16.6381 40.7552 17.3247 40.7099C18.2911 40.6458 19.2004 40.2238 19.8849 39.5217L22.9171 36.4115C23.7916 36.1765 24.4724 35.4475 24.6573 34.5345C24.969 34.6863 25.3173 34.7717 25.6849 34.7717C27.0073 34.7717 28.0833 33.6694 28.0833 32.3141V30.6053C28.3857 30.7466 28.7216 30.8261 29.0753 30.8261C30.3977 30.8261 31.4733 29.7238 31.4733 28.3684V23.3167L33.6361 25.5412C33.7734 25.6825 33.954 25.753 34.1345 25.753C34.314 25.753 34.4934 25.6833 34.6307 25.5435C34.9058 25.2631 34.9069 24.8077 34.6329 24.5259L32.8297 22.6713C33.1787 22.4745 33.572 22.3696 33.9814 22.3696C34.6216 22.3696 35.2236 22.6252 35.6763 23.0896L38.8784 26.3722C39.3655 26.8718 39.6339 27.536 39.6339 28.2425V30.298C39.6339 31.458 40.0745 32.5484 40.8743 33.3684L41.0925 33.5922L40.0726 34.6379L33.9042 40.9621L33.5603 40.6094C33.5566 40.6061 33.5533 40.6023 33.5497 40.599L33.4893 40.5367C32.7612 39.7905 31.7941 39.3418 30.7665 39.2736C30.1414 39.232 29.5532 38.9591 29.1083 38.5034L26.7979 36.1514C26.5225 35.8711 26.0771 35.8722 25.8032 36.154C25.5297 36.4359 25.5308 36.8917 25.8062 37.1717L28.1151 39.5217C28.7996 40.2238 29.7089 40.6458 30.6757 40.7099C31.3619 40.7552 32.0079 41.0551 32.4943 41.5536L32.5283 41.5885C32.5466 41.6098 32.566 41.6297 32.5865 41.6484L32.9106 41.9805L32.8748 42.0176C32.2961 42.6109 32.2961 43.5761 32.8748 44.1694L36.1754 47.5536C36.4563 47.8415 36.8295 48 37.2268 48C37.6238 48 37.9973 47.8415 38.2782 47.5536L47.566 38.0311C48.1447 37.4378 48.1447 36.4726 47.566 35.8793ZM41.5115 28.7234L41.4983 28.7211L41.3701 28.6945L41.5115 28.7234ZM18.8895 38.5049C18.4468 38.9591 17.8586 39.232 17.2339 39.2736C16.2059 39.3418 15.2388 39.7905 14.5107 40.5367L14.0958 40.9621L13.7223 40.5791C13.7175 40.5742 13.7128 40.569 13.708 40.5645L6.90747 33.5922L7.12573 33.3684C7.92554 32.5484 8.36609 31.458 8.36609 30.298V28.2425C8.36609 27.536 8.63416 26.8718 9.12158 26.3722L12.3237 23.0896C12.7764 22.6252 13.3784 22.3696 14.0186 22.3696C14.4291 22.3696 14.8239 22.4753 15.174 22.6735L13.3678 24.5251C13.0935 24.8062 13.0939 25.262 13.3685 25.5427C13.5059 25.6829 13.6857 25.753 13.8655 25.753C14.0457 25.753 14.2258 25.6825 14.3632 25.542L16.5205 23.3298V32.3141C16.5205 33.6694 17.5964 34.7717 18.9188 34.7717C19.2916 34.7717 19.6447 34.684 19.9596 34.5281C20.1024 35.2414 20.5477 35.8426 21.1512 36.1852L18.8895 38.5049ZM30.0674 28.3688C30.0674 28.9303 29.6221 29.3872 29.0753 29.3872C28.5282 29.3872 28.0833 28.9303 28.0833 28.3688V20.3415C28.0833 19.9442 27.7687 19.6218 27.3801 19.6218C26.9916 19.6218 26.677 19.9442 26.677 20.3415V32.3145C26.677 32.8759 26.2321 33.3325 25.6849 33.3325C25.1938 33.3325 24.7863 32.9644 24.7075 32.4828V20.3332C24.7075 19.9355 24.3929 19.6136 24.0044 19.6136C23.8795 19.6136 23.762 19.6473 23.6602 19.7058C23.4379 19.8268 23.2866 20.066 23.2866 20.3415V32.3141C23.2866 32.4055 23.2917 32.4951 23.3013 32.584V34.0341C23.3013 34.5956 22.8563 35.0525 22.3092 35.0525C21.7625 35.0525 21.3175 34.5956 21.3175 34.0341V20.3246C21.3175 19.9273 21.0026 19.6049 20.6144 19.6049C20.2258 19.6049 19.9109 19.9273 19.9109 20.3246V32.3141C19.9109 32.8756 19.4659 33.3325 18.9192 33.3325C18.3721 33.3325 17.9271 32.8756 17.9271 32.3141V18.9277C17.9271 18.53 17.6122 18.2076 17.224 18.2076C16.8354 18.2076 16.5209 18.53 16.5209 18.9277V21.4037C16.4619 21.4232 16.4048 21.4505 16.3517 21.4865C15.4424 21.1368 14.7935 20.2365 14.7935 19.1833V14.5405C14.7935 13.834 15.0619 13.1698 15.549 12.6702L16.9666 11.2166C17.7667 10.3966 18.2073 9.30622 18.2073 8.14618V7.83059H19.6208C20.0094 7.83059 20.324 7.50825 20.324 7.11094C20.324 6.71327 20.0094 6.3913 19.6208 6.3913H16.6926C16.6483 6.3913 16.6124 6.3542 16.6124 6.30885V1.52174C16.6124 1.47639 16.6483 1.43928 16.6926 1.43928H29.8264C29.8711 1.43928 29.907 1.47639 29.907 1.52174V6.30885C29.907 6.35457 29.8711 6.3913 29.8264 6.3913H22.9219C22.5337 6.3913 22.2188 6.71327 22.2188 7.11094C22.2188 7.50825 22.5337 7.83059 22.9219 7.83059H28.3722V8.43366C28.3722 9.48913 28.7461 10.5067 29.4254 11.2999C29.8392 11.7826 30.0674 12.4025 30.0674 13.0454V28.3688ZM46.5707 37.0142L37.2828 46.5367C37.2675 46.5528 37.2488 46.5607 37.2268 46.5607C37.2052 46.5607 37.1865 46.5528 37.1708 46.5367L33.8701 43.1525C33.8383 43.1199 33.8383 43.0671 33.8701 43.0345L34.4015 42.4895L34.4019 42.4891L39.7936 36.9614L43.158 33.512C43.1887 33.4801 43.2389 33.4801 43.2697 33.512L46.5707 36.8962C46.6025 36.9288 46.6025 36.9816 46.5707 37.0142Z" fill="#0D5ADE"/>
<path d="M18.9185 3.14795C18.5057 3.14795 18.1699 3.4924 18.1699 3.91557C18.1699 4.3391 18.5057 4.68318 18.9185 4.68318C19.3315 4.68318 19.6674 4.3391 19.6674 3.91557C19.6674 3.4924 19.3315 3.14795 18.9185 3.14795Z" fill="#0D5ADE"/>
<path d="M43.4437 35.9517C43.0306 35.9517 42.6948 36.2961 42.6948 36.7193C42.6948 37.1424 43.0306 37.4869 43.4437 37.4869C43.8564 37.4869 44.1923 37.1424 44.1923 36.7193C44.1923 36.2961 43.8564 35.9517 43.4437 35.9517Z" fill="#0D5ADE"/>
<path d="M11.7177 43.2935C11.7177 42.8703 11.3818 42.5259 10.9691 42.5259C10.556 42.5259 10.2202 42.8703 10.2202 43.2935C10.2202 43.7167 10.556 44.0611 10.9691 44.0611C11.3818 44.0611 11.7177 43.7167 11.7177 43.2935Z" fill="#0D5ADE"/>
</svg>
