<svg width="36" height="36" viewBox="0 0 36 36" fill="none" xmlns="http://www.w3.org/2000/svg">
<path d="M22.8001 23.3998C22.8001 23.0686 22.5312 22.7998 22.2001 22.7998C21.8689 22.7998 21.6001 23.0686 21.6001 23.3998V24.5998C21.6001 24.931 21.8689 25.1998 22.2001 25.1998C22.5312 25.1998 22.8001 24.931 22.8001 24.5998V23.3998Z" fill="#0D5ADE"/>
<path d="M22.2001 30C21.8689 30 21.6001 30.2688 21.6001 30.6V33C21.6001 33.3311 21.8689 33.5999 22.2001 33.5999C22.5312 33.5999 22.8 33.3311 22.8 33V30.6C22.8001 30.2688 22.5313 30 22.2001 30Z" fill="#0D5ADE"/>
<path d="M25.2 16.2001C25.2 15.8689 24.9311 15.6001 24.6 15.6001C24.2688 15.6001 24 15.8689 24 16.2001V17.4001C24 17.7313 24.2688 18.0001 24.6 18.0001C24.9311 18.0001 25.2 17.7313 25.2 17.4001V16.2001Z" fill="#0D5ADE"/>
<path d="M22.8001 19.8002C22.8001 19.469 22.5312 19.2002 22.2001 19.2002C21.8689 19.2002 21.6001 19.469 21.6001 19.8002V21.0002C21.6001 21.3314 21.8689 21.6002 22.2001 21.6002C22.5312 21.6002 22.8001 21.3314 22.8001 21.0002V19.8002Z" fill="#0D5ADE"/>
<path d="M22.8001 26.9999C22.8001 26.6687 22.5313 26.3999 22.2001 26.3999C21.869 26.3999 21.6001 26.6687 21.6001 26.9999V28.1999C21.6001 28.5311 21.8689 28.7999 22.2001 28.7999C22.5312 28.7999 22.8 28.5311 22.8 28.1999V26.9999H22.8001Z" fill="#0D5ADE"/>
<path d="M25.2 19.8002C25.2 19.469 24.9311 19.2002 24.6 19.2002C24.2688 19.2002 24 19.469 24 19.8002V21.0002C24 21.3314 24.2688 21.6002 24.6 21.6002C24.9311 21.6002 25.2 21.3314 25.2 21.0002V19.8002Z" fill="#0D5ADE"/>
<path d="M20.4001 16.2001C20.4001 15.8689 20.1313 15.6001 19.8002 15.6001C19.469 15.6001 19.2002 15.8689 19.2002 16.2001V17.4001C19.2002 17.7313 19.469 18.0001 19.8002 18.0001C20.1313 18.0001 20.4001 17.7313 20.4001 17.4001V16.2001Z" fill="#0D5ADE"/>
<path d="M22.8001 16.2001C22.8001 15.8689 22.5312 15.6001 22.2001 15.6001C21.8689 15.6001 21.6001 15.8689 21.6001 16.2001V17.4001C21.6001 17.7313 21.8689 18.0001 22.2001 18.0001C22.5312 18.0001 22.8001 17.7313 22.8001 17.4001V16.2001Z" fill="#0D5ADE"/>
<path d="M25.2 10.1999V8.99988C25.2 8.66871 24.9311 8.3999 24.6 8.3999C24.2688 8.3999 24 8.66871 24 8.99988V10.1999C24 10.5311 24.2688 10.7999 24.6 10.7999C24.9311 10.7999 25.2 10.5311 25.2 10.1999Z" fill="#0D5ADE"/>
<path d="M20.4001 19.8002C20.4001 19.469 20.1313 19.2002 19.8002 19.2002C19.469 19.2002 19.2002 19.469 19.2002 19.8002V21.0002C19.2002 21.3314 19.469 21.6002 19.8002 21.6002C20.1313 21.6002 20.4001 21.3314 20.4001 21.0002V19.8002Z" fill="#0D5ADE"/>
<path d="M27.5999 8.99988C27.5999 8.66871 27.3311 8.3999 26.9999 8.3999C26.6687 8.3999 26.3999 8.66871 26.3999 8.99988V10.1999C26.3999 10.5311 26.6687 10.7999 26.9999 10.7999C27.3311 10.7999 27.5999 10.5311 27.5999 10.1999V8.99988Z" fill="#0D5ADE"/>
<path d="M19.8002 22.7998C19.469 22.7998 19.2002 23.0686 19.2002 23.3998V24.5998C19.2002 24.931 19.469 25.1998 19.8002 25.1998C20.1313 25.1998 20.4001 24.931 20.4001 24.5998V23.3998C20.4001 23.0686 20.1313 22.7998 19.8002 22.7998Z" fill="#0D5ADE"/>
<path d="M29.9998 26.9999C29.9998 26.6687 29.731 26.3999 29.3999 26.3999C29.0687 26.3999 28.7998 26.6687 28.7998 26.9999V28.1999C28.7998 28.5311 29.0686 28.7999 29.3998 28.7999C29.731 28.7999 29.9998 28.5311 29.9998 28.1999V26.9999H29.9998Z" fill="#0D5ADE"/>
<path d="M29.3998 30C29.0686 30 28.7998 30.2688 28.7998 30.6V33C28.7998 33.3311 29.0686 33.5999 29.3998 33.5999C29.731 33.5999 29.9998 33.3311 29.9998 33V30.6C29.9998 30.2688 29.731 30 29.3998 30Z" fill="#0D5ADE"/>
<path d="M31.8002 22.7998C31.469 22.7998 31.2002 23.0686 31.2002 23.3998V24.5998C31.2002 24.931 31.469 25.1998 31.8002 25.1998C32.1313 25.1998 32.4001 24.931 32.4001 24.5998V23.3998C32.4001 23.0686 32.1313 22.7998 31.8002 22.7998Z" fill="#0D5ADE"/>
<path d="M22.2001 10.8001C22.5312 10.8001 22.8 10.5313 22.8 10.2001V7.66875L28.8001 6.16869V16.2001C28.8001 16.4503 28.9555 16.6741 29.1895 16.7624L33.6001 18.416V24.6002C33.6001 24.9314 33.8689 25.2002 34.2001 25.2002C34.5313 25.2002 34.8001 24.9314 34.8001 24.6002V18.0002C34.8001 17.75 34.6447 17.5262 34.4107 17.4379L30 15.7843V4.20008C30 3.8689 29.7312 3.6001 29.4001 3.6001C29.0689 3.6001 28.8001 3.8689 28.8001 4.20008V4.93147L22.0543 6.61806C21.7873 6.68465 21.6001 6.9247 21.6001 7.20004V10.2001C21.6001 10.5313 21.8689 10.8001 22.2001 10.8001Z" fill="#0D5ADE"/>
<path d="M32.4001 19.8002C32.4001 19.469 32.1313 19.2002 31.8002 19.2002C31.469 19.2002 31.2002 19.469 31.2002 19.8002V21.0002C31.2002 21.3314 31.469 21.6002 31.8002 21.6002C32.1313 21.6002 32.4001 21.3314 32.4001 21.0002V19.8002Z" fill="#0D5ADE"/>
<path d="M29.9998 19.8002C29.9998 19.469 29.731 19.2002 29.3998 19.2002C29.0686 19.2002 28.7998 19.469 28.7998 19.8002V21.0002C28.7998 21.3314 29.0686 21.6002 29.3998 21.6002C29.731 21.6002 29.9998 21.3314 29.9998 21.0002V19.8002Z" fill="#0D5ADE"/>
<path d="M25.2 26.9999C25.2 26.6687 24.9311 26.3999 24.6 26.3999C24.2688 26.3999 24 26.6687 24 26.9999V28.1999C24 28.5311 24.2688 28.7999 24.6 28.7999C24.9311 28.7999 25.2 28.5311 25.2 28.1999V26.9999Z" fill="#0D5ADE"/>
<path d="M29.9998 23.3998C29.9998 23.0686 29.731 22.7998 29.3998 22.7998C29.0686 22.7998 28.7998 23.0686 28.7998 23.3998V24.5998C28.7998 24.931 29.0686 25.1998 29.3998 25.1998C29.731 25.1998 29.9998 24.931 29.9998 24.5998V23.3998Z" fill="#0D5ADE"/>
<path d="M24.6 30C24.2688 30 24 30.2688 24 30.6V33C24 33.3311 24.2688 33.5999 24.6 33.5999C24.9311 33.5999 25.2 33.3311 25.2 33V30.6C25.2 30.2688 24.9311 30 24.6 30Z" fill="#0D5ADE"/>
<path d="M25.2 23.3998C25.2 23.0686 24.9311 22.7998 24.6 22.7998C24.2688 22.7998 24 23.0686 24 23.3998V24.5998C24 24.931 24.2688 25.1998 24.6 25.1998C24.9311 25.1998 25.2 24.931 25.2 24.5998V23.3998Z" fill="#0D5ADE"/>
<path d="M26.9998 33.6004C27.331 33.6004 27.5998 33.3316 27.5998 33.0004V13.8003C27.5998 13.5249 27.412 13.2849 27.1456 13.2183L17.5456 10.8182C17.3674 10.7732 17.176 10.814 17.0308 10.9274C16.885 11.0409 16.7998 11.2154 16.7998 11.4002V24.6003C16.7998 24.9314 17.0686 25.2002 17.3998 25.2002C17.731 25.2002 17.9998 24.9314 17.9998 24.6003V12.1689L26.3998 14.2689V33.0004C26.3999 33.3316 26.6687 33.6004 26.9998 33.6004Z" fill="#0D5ADE"/>
<path d="M13.2 12.6C13.2 12.2688 12.9311 12 12.6 12C12.2688 12 12 12.2688 12 12.6V13.8C12 14.1312 12.2688 14.4 12.6 14.4C12.9311 14.4 13.2 14.1312 13.2 13.8V12.6Z" fill="#0D5ADE"/>
<path d="M13.2 8.99988C13.2 8.66871 12.9311 8.3999 12.6 8.3999C12.2688 8.3999 12 8.66871 12 8.99988V10.1999C12 10.5311 12.2688 10.7999 12.6 10.7999C12.9311 10.7999 13.2 10.5311 13.2 10.1999V8.99988Z" fill="#0D5ADE"/>
<path d="M8.40022 26.9999C8.40022 26.6687 8.13141 26.3999 7.80024 26.3999C7.46907 26.3999 7.2002 26.6687 7.2002 26.9999V28.1999C7.2002 28.5311 7.469 28.7999 7.80017 28.7999C8.13134 28.7999 8.40015 28.5311 8.40015 28.1999V26.9999H8.40022Z" fill="#0D5ADE"/>
<path d="M2.99995 21.5998C3.33112 21.5998 3.59993 21.331 3.59993 20.9998V17.9998H9.5999V32.9998C9.5999 33.331 9.86871 33.5998 10.1999 33.5998C10.5311 33.5998 10.7999 33.331 10.7999 32.9998V17.3998C10.7999 17.0686 10.5311 16.7998 10.1999 16.7998H2.99988C2.66871 16.7998 2.3999 17.0686 2.3999 17.3998V20.9998C2.3999 21.331 2.66871 21.5998 2.99995 21.5998Z" fill="#0D5ADE"/>
<path d="M9.6001 12.6V13.8C9.6001 14.1312 9.8689 14.4 10.2001 14.4C10.5312 14.4 10.8001 14.1312 10.8001 13.8V12.6C10.8001 12.2688 10.5312 12 10.2001 12C9.8689 12 9.6001 12.2688 9.6001 12.6Z" fill="#0D5ADE"/>
<path d="M13.2 5.39978C13.2 5.06861 12.9311 4.7998 12.6 4.7998C12.2688 4.7998 12 5.06861 12 5.39978V6.59981C12 6.93099 12.2688 7.19979 12.6 7.19979C12.9311 7.19979 13.2 6.93099 13.2 6.59981V5.39978Z" fill="#0D5ADE"/>
<path d="M7.80017 30C7.469 30 7.2002 30.2688 7.2002 30.6V33C7.2002 33.3311 7.469 33.5999 7.80017 33.5999C8.13134 33.5999 8.40015 33.3311 8.40015 33V30.6C8.40022 30.2688 8.13141 30 7.80017 30Z" fill="#0D5ADE"/>
<path d="M35.4 34.7999H34.2V31.1146C35.232 30.8465 36 29.9146 36 28.7998C36 27.4762 34.9236 26.3998 33.6 26.3998C32.2765 26.3998 31.2 27.4762 31.2 28.7998C31.2 29.9146 31.9681 30.8464 33 31.1146V34.7999H18V32.3393C19.3674 32.0603 20.4 30.8489 20.4 29.3999C20.4 27.7457 19.0542 26.3998 17.4 26.3998C15.7458 26.3998 14.3999 27.7456 14.3999 29.3999C14.3999 30.8489 15.4325 32.0603 16.7999 32.3393V34.7999H3.6V28.7393C4.96737 28.4603 5.99998 27.2488 5.99998 25.7998C5.99998 24.1457 4.6542 22.7998 2.99995 22.7998C1.34578 22.7999 0 24.1457 0 25.7998C0 27.2488 1.03261 28.4603 2.39998 28.7393V34.7999H0.599977C0.268805 34.7999 0 35.0687 0 35.3999C0 35.731 0.268805 35.9999 0.599977 35.9999H35.4C35.7311 35.9999 35.9999 35.7311 35.9999 35.3999C35.9999 35.0688 35.7312 34.7999 35.4 34.7999ZM1.20002 25.7998C1.20002 24.8074 2.00763 23.9998 3.00002 23.9998C3.99241 23.9998 4.80002 24.8074 4.80002 25.7998C4.80002 26.7922 3.99241 27.5998 3.00002 27.5998C2.00763 27.5998 1.20002 26.7922 1.20002 25.7998ZM15.6 29.3999C15.6 28.4075 16.4076 27.5998 17.4 27.5998C18.3924 27.5998 19.2 28.4075 19.2 29.3999C19.2 30.3923 18.3924 31.1999 17.4 31.1999C16.4076 31.1999 15.6 30.3923 15.6 29.3999ZM32.4 28.7999C32.4 28.1381 32.9382 27.5998 33.6 27.5998C34.2619 27.5998 34.8 28.138 34.8 28.7999C34.8 29.4617 34.2619 29.9999 33.6 29.9999C32.9382 29.9999 32.4 29.4617 32.4 28.7999Z" fill="#0D5ADE"/>
<path d="M4.7998 30.6V33C4.7998 33.3311 5.06861 33.5999 5.39978 33.5999C5.73095 33.5999 5.99976 33.3311 5.99976 33V30.6C5.99976 30.2688 5.73095 30 5.39978 30C5.06861 30 4.7998 30.2688 4.7998 30.6Z" fill="#0D5ADE"/>
<path d="M8.40015 19.8002C8.40015 19.469 8.13134 19.2002 7.80017 19.2002C7.469 19.2002 7.2002 19.469 7.2002 19.8002V21.0002C7.2002 21.3314 7.469 21.6002 7.80017 21.6002C8.13134 21.6002 8.40015 21.3314 8.40015 21.0002V19.8002Z" fill="#0D5ADE"/>
<path d="M8.40015 23.3998C8.40015 23.0686 8.13134 22.7998 7.80017 22.7998C7.469 22.7998 7.2002 23.0686 7.2002 23.3998V24.5998C7.2002 24.931 7.469 25.1998 7.80017 25.1998C8.13134 25.1998 8.40015 24.931 8.40015 24.5998V23.3998Z" fill="#0D5ADE"/>
<path d="M4.7998 19.8002V21.0002C4.7998 21.3314 5.06861 21.6002 5.39978 21.6002C5.73095 21.6002 5.99976 21.3314 5.99976 21.0002V19.8002C5.99976 19.469 5.73095 19.2002 5.39978 19.2002C5.06861 19.2002 4.7998 19.469 4.7998 19.8002Z" fill="#0D5ADE"/>
<path d="M13.2 23.3998C13.2 23.0686 12.9311 22.7998 12.6 22.7998C12.2688 22.7998 12 23.0686 12 23.3998V24.5998C12 24.931 12.2688 25.1998 12.6 25.1998C12.9311 25.1998 13.2 24.931 13.2 24.5998V23.3998Z" fill="#0D5ADE"/>
<path d="M15.5999 16.2001C15.5999 15.8689 15.3311 15.6001 14.9999 15.6001C14.6687 15.6001 14.3999 15.8689 14.3999 16.2001V17.4001C14.3999 17.7313 14.6687 18.0001 14.9999 18.0001C15.3311 18.0001 15.5999 17.7313 15.5999 17.4001V16.2001Z" fill="#0D5ADE"/>
<path d="M15.5999 12.6C15.5999 12.2688 15.3311 12 14.9999 12C14.6687 12 14.3999 12.2688 14.3999 12.6V13.8C14.3999 14.1312 14.6687 14.4 14.9999 14.4C15.3311 14.4 15.5999 14.1312 15.5999 13.8V12.6Z" fill="#0D5ADE"/>
<path d="M15.5999 19.8002C15.5999 19.469 15.3311 19.2002 14.9999 19.2002C14.6687 19.2002 14.3999 19.469 14.3999 19.8002V21.0002C14.3999 21.3314 14.6687 21.6002 14.9999 21.6002C15.3311 21.6002 15.5999 21.3314 15.5999 21.0002V19.8002Z" fill="#0D5ADE"/>
<path d="M14.9999 22.7998C14.6687 22.7998 14.3999 23.0686 14.3999 23.3998V24.5998C14.3999 24.931 14.6687 25.1998 14.9999 25.1998C15.3311 25.1998 15.5999 24.931 15.5999 24.5998V23.3998C15.5999 23.0686 15.3311 22.7998 14.9999 22.7998Z" fill="#0D5ADE"/>
<path d="M15.5999 8.99988C15.5999 8.66871 15.3311 8.3999 14.9999 8.3999C14.6687 8.3999 14.3999 8.66871 14.3999 8.99988V10.1999C14.3999 10.5311 14.6687 10.7999 14.9999 10.7999C15.3311 10.7999 15.5999 10.5311 15.5999 10.1999V8.99988Z" fill="#0D5ADE"/>
<path d="M13.2 26.9999C13.2 26.6687 12.9311 26.3999 12.6 26.3999C12.2688 26.3999 12 26.6687 12 26.9999V28.1999C12 28.5311 12.2688 28.7999 12.6 28.7999C12.9311 28.7999 13.2 28.5311 13.2 28.1999V26.9999Z" fill="#0D5ADE"/>
<path d="M7.8001 15.6001C8.13127 15.6001 8.40008 15.3313 8.40008 15.0001V10.5708L10.4683 9.53702C10.6717 9.43499 10.8001 9.22743 10.8001 9.00004V3.97084L13.8001 2.47086L16.8001 3.97084V9.00004C16.8001 9.33121 17.0689 9.60002 17.4001 9.60002C17.7312 9.60002 18.0001 9.33121 18.0001 9.00004V3.60001C18.0001 3.37262 17.8717 3.16499 17.6683 3.06304L14.4001 1.42918V0.599979C14.4001 0.268806 14.1313 0 13.8001 0C13.469 0 13.2002 0.268806 13.2002 0.599979V1.42918L9.93198 3.06297C9.72856 3.16499 9.60017 3.37255 9.60017 3.59994V8.62914L7.532 9.66295C7.32859 9.76497 7.2002 9.97253 7.2002 10.1999V15C7.20013 15.3313 7.46893 15.6001 7.8001 15.6001Z" fill="#0D5ADE"/>
<path d="M13.2 19.8002C13.2 19.469 12.9311 19.2002 12.6 19.2002C12.2688 19.2002 12 19.469 12 19.8002V21.0002C12 21.3314 12.2688 21.6002 12.6 21.6002C12.9311 21.6002 13.2 21.3314 13.2 21.0002V19.8002Z" fill="#0D5ADE"/>
<path d="M12.6 30C12.2688 30 12 30.2688 12 30.6V33C12 33.3311 12.2688 33.5999 12.6 33.5999C12.9311 33.5999 13.2 33.3311 13.2 33V30.6C13.2 30.2688 12.9311 30 12.6 30Z" fill="#0D5ADE"/>
<path d="M15.5999 5.39978C15.5999 5.06861 15.3311 4.7998 14.9999 4.7998C14.6687 4.7998 14.3999 5.06861 14.3999 5.39978V6.59981C14.3999 6.93099 14.6687 7.19979 14.9999 7.19979C15.3311 7.19979 15.5999 6.93099 15.5999 6.59981V5.39978Z" fill="#0D5ADE"/>
<path d="M13.2 16.2001C13.2 15.8689 12.9311 15.6001 12.6 15.6001C12.2688 15.6001 12 15.8689 12 16.2001V17.4001C12 17.7313 12.2688 18.0001 12.6 18.0001C12.9311 18.0001 13.2 17.7313 13.2 17.4001V16.2001Z" fill="#0D5ADE"/>
</svg>
