<svg width="48" height="48" viewBox="0 0 48 48" fill="none" xmlns="http://www.w3.org/2000/svg">
<path d="M30.4002 31.1999C30.4002 30.7583 30.0418 30.3999 29.6003 30.3999C29.1587 30.3999 28.8003 30.7583 28.8003 31.1999V32.7999C28.8003 33.2415 29.1587 33.5999 29.6003 33.5999C30.0418 33.5999 30.4002 33.2415 30.4002 32.7999V31.1999Z" fill="white"/>
<path d="M29.6003 40C29.1587 40 28.8003 40.3584 28.8003 40.8V43.9999C28.8003 44.4415 29.1587 44.7999 29.6003 44.7999C30.0418 44.7999 30.4002 44.4415 30.4002 43.9999V40.8C30.4003 40.3584 30.0419 40 29.6003 40Z" fill="white"/>
<path d="M33.5999 21.6003C33.5999 21.1587 33.2415 20.8003 32.8 20.8003C32.3584 20.8003 32 21.1587 32 21.6003V23.2003C32 23.6419 32.3584 24.0003 32.8 24.0003C33.2415 24.0003 33.5999 23.6419 33.5999 23.2003V21.6003Z" fill="white"/>
<path d="M30.4002 26.4001C30.4002 25.9585 30.0418 25.6001 29.6003 25.6001C29.1587 25.6001 28.8003 25.9585 28.8003 26.4001V28.0001C28.8003 28.4417 29.1587 28.8001 29.6003 28.8001C30.0418 28.8001 30.4002 28.4417 30.4002 28.0001V26.4001Z" fill="white"/>
<path d="M30.4003 35.9997C30.4003 35.5581 30.0419 35.1997 29.6004 35.1997C29.1588 35.1997 28.8003 35.5581 28.8003 35.9997V37.5997C28.8003 38.0413 29.1587 38.3997 29.6003 38.3997C30.0418 38.3997 30.4002 38.0413 30.4002 37.5997V35.9997H30.4003Z" fill="white"/>
<path d="M33.5999 26.4001C33.5999 25.9585 33.2415 25.6001 32.8 25.6001C32.3584 25.6001 32 25.9585 32 26.4001V28.0001C32 28.4417 32.3584 28.8001 32.8 28.8001C33.2415 28.8001 33.5999 28.4417 33.5999 28.0001V26.4001Z" fill="white"/>
<path d="M27.2 21.6003C27.2 21.1587 26.8416 20.8003 26.4001 20.8003C25.9585 20.8003 25.6001 21.1587 25.6001 21.6003V23.2003C25.6001 23.6419 25.9585 24.0003 26.4001 24.0003C26.8416 24.0003 27.2 23.6419 27.2 23.2003V21.6003Z" fill="white"/>
<path d="M30.4002 21.6003C30.4002 21.1587 30.0418 20.8003 29.6003 20.8003C29.1587 20.8003 28.8003 21.1587 28.8003 21.6003V23.2003C28.8003 23.6419 29.1587 24.0003 29.6003 24.0003C30.0418 24.0003 30.4002 23.6419 30.4002 23.2003V21.6003Z" fill="white"/>
<path d="M33.5999 13.5997V11.9997C33.5999 11.5581 33.2415 11.1997 32.8 11.1997C32.3584 11.1997 32 11.5581 32 11.9997V13.5997C32 14.0413 32.3584 14.3997 32.8 14.3997C33.2415 14.3997 33.5999 14.0413 33.5999 13.5997Z" fill="white"/>
<path d="M27.2 26.4001C27.2 25.9585 26.8416 25.6001 26.4001 25.6001C25.9585 25.6001 25.6001 25.9585 25.6001 26.4001V28.0001C25.6001 28.4417 25.9585 28.8001 26.4001 28.8001C26.8416 28.8001 27.2 28.4417 27.2 28.0001V26.4001Z" fill="white"/>
<path d="M36.7996 11.9997C36.7996 11.5581 36.4412 11.1997 35.9997 11.1997C35.5581 11.1997 35.1997 11.5581 35.1997 11.9997V13.5997C35.1997 14.0413 35.5581 14.3997 35.9997 14.3997C36.4412 14.3997 36.7996 14.0413 36.7996 13.5997V11.9997Z" fill="white"/>
<path d="M26.4001 30.3999C25.9585 30.3999 25.6001 30.7583 25.6001 31.1999V32.7999C25.6001 33.2415 25.9585 33.5999 26.4001 33.5999C26.8416 33.5999 27.2 33.2415 27.2 32.7999V31.1999C27.2 30.7583 26.8416 30.3999 26.4001 30.3999Z" fill="white"/>
<path d="M39.9999 35.9997C39.9999 35.5581 39.6415 35.1997 39.2 35.1997C38.7584 35.1997 38.3999 35.5581 38.3999 35.9997V37.5997C38.3999 38.0413 38.7583 38.3997 39.1999 38.3997C39.6414 38.3997 39.9998 38.0413 39.9998 37.5997V35.9997H39.9999Z" fill="white"/>
<path d="M39.1999 40C38.7583 40 38.3999 40.3584 38.3999 40.8V43.9999C38.3999 44.4415 38.7583 44.7999 39.1999 44.7999C39.6414 44.7999 39.9998 44.4415 39.9998 43.9999V40.8C39.9999 40.3584 39.6415 40 39.1999 40Z" fill="white"/>
<path d="M42.4001 30.3999C41.9585 30.3999 41.6001 30.7583 41.6001 31.1999V32.7999C41.6001 33.2415 41.9585 33.5999 42.4001 33.5999C42.8416 33.5999 43.2 33.2415 43.2 32.7999V31.1999C43.2 30.7583 42.8416 30.3999 42.4001 30.3999Z" fill="white"/>
<path d="M29.6003 14.4003C30.0418 14.4003 30.4002 14.0419 30.4002 13.6003V10.2251L38.4003 8.22507V21.6003C38.4003 21.9339 38.6075 22.2323 38.9195 22.3499L44.8003 24.5547V32.8003C44.8003 33.2419 45.1587 33.6003 45.6003 33.6003C46.0419 33.6003 46.4003 33.2419 46.4003 32.8003V24.0003C46.4003 23.6667 46.1931 23.3683 45.8811 23.2507L40.0002 21.0459V5.60026C40.0002 5.1587 39.6418 4.80029 39.2003 4.80029C38.7587 4.80029 38.4003 5.1587 38.4003 5.60026V6.57545L29.4059 8.82423C29.0499 8.91301 28.8003 9.23307 28.8003 9.6002V13.6002C28.8003 14.0419 29.1587 14.4003 29.6003 14.4003Z" fill="white"/>
<path d="M43.2 26.4001C43.2 25.9585 42.8416 25.6001 42.4001 25.6001C41.9585 25.6001 41.6001 25.9585 41.6001 26.4001V28.0001C41.6001 28.4417 41.9585 28.8001 42.4001 28.8001C42.8416 28.8001 43.2 28.4417 43.2 28.0001V26.4001Z" fill="white"/>
<path d="M39.9998 26.4001C39.9998 25.9585 39.6414 25.6001 39.1999 25.6001C38.7583 25.6001 38.3999 25.9585 38.3999 26.4001V28.0001C38.3999 28.4417 38.7583 28.8001 39.1999 28.8001C39.6414 28.8001 39.9998 28.4417 39.9998 28.0001V26.4001Z" fill="white"/>
<path d="M33.5999 35.9997C33.5999 35.5581 33.2415 35.1997 32.8 35.1997C32.3584 35.1997 32 35.5581 32 35.9997V37.5997C32 38.0413 32.3584 38.3997 32.8 38.3997C33.2415 38.3997 33.5999 38.0413 33.5999 37.5997V35.9997Z" fill="white"/>
<path d="M39.9998 31.1999C39.9998 30.7583 39.6414 30.3999 39.1999 30.3999C38.7583 30.3999 38.3999 30.7583 38.3999 31.1999V32.7999C38.3999 33.2415 38.7583 33.5999 39.1999 33.5999C39.6414 33.5999 39.9998 33.2415 39.9998 32.7999V31.1999Z" fill="white"/>
<path d="M32.8 40C32.3584 40 32 40.3584 32 40.8V43.9999C32 44.4415 32.3584 44.7999 32.8 44.7999C33.2415 44.7999 33.5999 44.4415 33.5999 43.9999V40.8C33.5999 40.3584 33.2415 40 32.8 40Z" fill="white"/>
<path d="M33.5999 31.1999C33.5999 30.7583 33.2415 30.3999 32.8 30.3999C32.3584 30.3999 32 30.7583 32 31.1999V32.7999C32 33.2415 32.3584 33.5999 32.8 33.5999C33.2415 33.5999 33.5999 33.2415 33.5999 32.7999V31.1999Z" fill="white"/>
<path d="M35.9999 44.8004C36.4415 44.8004 36.7999 44.4419 36.7999 44.0004V18.4004C36.7999 18.0331 36.5495 17.7132 36.1943 17.6244L23.3943 14.4243C23.1567 14.3643 22.9015 14.4187 22.7079 14.5699C22.5134 14.7211 22.3999 14.9539 22.3999 15.2003V32.8003C22.3999 33.2418 22.7583 33.6002 23.1999 33.6002C23.6414 33.6002 23.9998 33.2418 23.9998 32.8003V16.2252L35.1999 19.0252V44.0004C35.2 44.4419 35.5584 44.8004 35.9999 44.8004Z" fill="white"/>
<path d="M17.5999 16.8C17.5999 16.3584 17.2415 16 16.8 16C16.3584 16 16 16.3584 16 16.8V18.4C16 18.8416 16.3584 19.2 16.8 19.2C17.2415 19.2 17.5999 18.8416 17.5999 18.4V16.8Z" fill="white"/>
<path d="M17.5999 11.9997C17.5999 11.5581 17.2415 11.1997 16.8 11.1997C16.3584 11.1997 16 11.5581 16 11.9997V13.5997C16 14.0413 16.3584 14.3997 16.8 14.3997C17.2415 14.3997 17.5999 14.0413 17.5999 13.5997V11.9997Z" fill="white"/>
<path d="M11.2001 35.9997C11.2001 35.5581 10.8417 35.1997 10.4002 35.1997C9.9586 35.1997 9.6001 35.5581 9.6001 35.9997V37.5997C9.6001 38.0413 9.9585 38.3997 10.4001 38.3997C10.8416 38.3997 11.2 38.0413 11.2 37.5997V35.9997H11.2001Z" fill="white"/>
<path d="M3.99977 28.7998C4.44133 28.7998 4.79974 28.4414 4.79974 27.9999V23.9998H12.7997V43.9998C12.7997 44.4414 13.1581 44.7998 13.5997 44.7998C14.0412 44.7998 14.3996 44.4414 14.3996 43.9998V23.1999C14.3996 22.7583 14.0412 22.3999 13.5997 22.3999H3.99968C3.55811 22.3999 3.19971 22.7583 3.19971 23.1999V27.9999C3.19971 28.4414 3.55811 28.7998 3.99977 28.7998Z" fill="white"/>
<path d="M12.8003 16.8V18.4C12.8003 18.8416 13.1587 19.2 13.6003 19.2C14.0418 19.2 14.4002 18.8416 14.4002 18.4V16.8C14.4002 16.3584 14.0418 16 13.6003 16C13.1587 16 12.8003 16.3584 12.8003 16.8Z" fill="white"/>
<path d="M17.5999 7.19987C17.5999 6.75831 17.2415 6.3999 16.8 6.3999C16.3584 6.3999 16 6.75831 16 7.19987V8.7999C16 9.24146 16.3584 9.59987 16.8 9.59987C17.2415 9.59987 17.5999 9.24146 17.5999 8.7999V7.19987Z" fill="white"/>
<path d="M10.4001 40C9.9585 40 9.6001 40.3584 9.6001 40.8V43.9999C9.6001 44.4415 9.9585 44.7999 10.4001 44.7999C10.8416 44.7999 11.2 44.4415 11.2 43.9999V40.8C11.2001 40.3584 10.8417 40 10.4001 40Z" fill="white"/>
<path d="M47.2 46.3999H45.6V41.4863C46.976 41.1287 48 39.8863 48 38.3999C48 36.635 46.5648 35.1999 44.8 35.1999C43.0353 35.1999 41.6001 36.6351 41.6001 38.3999C41.6001 39.8863 42.6241 41.1287 44.0001 41.4863V46.3999H24V43.1192C25.8232 42.7472 27.2 41.1319 27.2 39.1999C27.2 36.9944 25.4056 35.1999 23.1999 35.1999C20.9944 35.1999 19.1999 36.9943 19.1999 39.1999C19.1999 41.1319 20.5767 42.7472 22.3999 43.1192V46.3999H4.8V38.3192C6.62316 37.9472 7.99997 36.3319 7.99997 34.3999C7.99997 32.1944 6.20559 30.3999 3.99994 30.3999C1.79438 30.4 0 32.1944 0 34.3999C0 36.3319 1.37681 37.9472 3.19997 38.3192V46.3999H0.799969C0.358406 46.3999 0 46.7583 0 47.1999C0 47.6415 0.358406 48 0.799969 48H47.1999C47.6415 48 47.9999 47.6416 47.9999 47.2C47.9999 46.7584 47.6416 46.3999 47.2 46.3999ZM1.60003 34.3999C1.60003 33.0767 2.67684 31.9999 4.00003 31.9999C5.32322 31.9999 6.40003 33.0767 6.40003 34.3999C6.40003 35.7231 5.32322 36.7999 4.00003 36.7999C2.67684 36.7999 1.60003 35.7231 1.60003 34.3999ZM20.8 39.1999C20.8 37.8767 21.8768 36.7999 23.2 36.7999C24.5232 36.7999 25.6 37.8767 25.6 39.1999C25.6 40.5231 24.5232 41.5999 23.2 41.5999C21.8768 41.5999 20.8 40.5231 20.8 39.1999ZM43.2 38.4C43.2 37.5176 43.9176 36.7999 44.8 36.7999C45.6825 36.7999 46.4001 37.5175 46.4001 38.4C46.4001 39.2823 45.6825 40 44.8 40C43.9176 40 43.2 39.2823 43.2 38.4Z" fill="white"/>
<path d="M6.3999 40.8V43.9999C6.3999 44.4415 6.75831 44.7999 7.19987 44.7999C7.64143 44.7999 7.99984 44.4415 7.99984 43.9999V40.8C7.99984 40.3584 7.64143 40 7.19987 40C6.75831 40 6.3999 40.3584 6.3999 40.8Z" fill="white"/>
<path d="M11.2 26.4001C11.2 25.9585 10.8416 25.6001 10.4001 25.6001C9.9585 25.6001 9.6001 25.9585 9.6001 26.4001V28.0001C9.6001 28.4417 9.9585 28.8001 10.4001 28.8001C10.8416 28.8001 11.2 28.4417 11.2 28.0001V26.4001Z" fill="white"/>
<path d="M11.2 31.1999C11.2 30.7583 10.8416 30.3999 10.4001 30.3999C9.9585 30.3999 9.6001 30.7583 9.6001 31.1999V32.7999C9.6001 33.2415 9.9585 33.5999 10.4001 33.5999C10.8416 33.5999 11.2 33.2415 11.2 32.7999V31.1999Z" fill="white"/>
<path d="M6.3999 26.4001V28.0001C6.3999 28.4417 6.75831 28.8001 7.19987 28.8001C7.64143 28.8001 7.99984 28.4417 7.99984 28.0001V26.4001C7.99984 25.9585 7.64143 25.6001 7.19987 25.6001C6.75831 25.6001 6.3999 25.9585 6.3999 26.4001Z" fill="white"/>
<path d="M17.5999 31.1999C17.5999 30.7583 17.2415 30.3999 16.8 30.3999C16.3584 30.3999 16 30.7583 16 31.1999V32.7999C16 33.2415 16.3584 33.5999 16.8 33.5999C17.2415 33.5999 17.5999 33.2415 17.5999 32.7999V31.1999Z" fill="white"/>
<path d="M20.7996 21.6003C20.7996 21.1587 20.4412 20.8003 19.9997 20.8003C19.5581 20.8003 19.1997 21.1587 19.1997 21.6003V23.2003C19.1997 23.6419 19.5581 24.0003 19.9997 24.0003C20.4412 24.0003 20.7996 23.6419 20.7996 23.2003V21.6003Z" fill="white"/>
<path d="M20.7996 16.8C20.7996 16.3584 20.4412 16 19.9997 16C19.5581 16 19.1997 16.3584 19.1997 16.8V18.4C19.1997 18.8416 19.5581 19.2 19.9997 19.2C20.4412 19.2 20.7996 18.8416 20.7996 18.4V16.8Z" fill="white"/>
<path d="M20.7996 26.4001C20.7996 25.9585 20.4412 25.6001 19.9997 25.6001C19.5581 25.6001 19.1997 25.9585 19.1997 26.4001V28.0001C19.1997 28.4417 19.5581 28.8001 19.9997 28.8001C20.4412 28.8001 20.7996 28.4417 20.7996 28.0001V26.4001Z" fill="white"/>
<path d="M19.9997 30.3999C19.5581 30.3999 19.1997 30.7583 19.1997 31.1999V32.7999C19.1997 33.2415 19.5581 33.5999 19.9997 33.5999C20.4412 33.5999 20.7996 33.2415 20.7996 32.7999V31.1999C20.7997 30.7583 20.4413 30.3999 19.9997 30.3999Z" fill="white"/>
<path d="M20.7996 11.9997C20.7996 11.5581 20.4412 11.1997 19.9997 11.1997C19.5581 11.1997 19.1997 11.5581 19.1997 11.9997V13.5997C19.1997 14.0413 19.5581 14.3997 19.9997 14.3997C20.4412 14.3997 20.7996 14.0413 20.7996 13.5997V11.9997Z" fill="white"/>
<path d="M17.5999 35.9997C17.5999 35.5581 17.2415 35.1997 16.8 35.1997C16.3584 35.1997 16 35.5581 16 35.9997V37.5997C16 38.0413 16.3584 38.3997 16.8 38.3997C17.2415 38.3997 17.5999 38.0413 17.5999 37.5997V35.9997Z" fill="white"/>
<path d="M10.4 20.8C10.8415 20.8 11.1999 20.4416 11.1999 20.0001V14.0944L13.9575 12.716C14.2287 12.5799 14.3999 12.3032 14.3999 12V5.29444L18.3999 3.29447L22.4 5.29444V12C22.4 12.4416 22.7584 12.8 23.1999 12.8C23.6415 12.8 24 12.4416 24 12V4.8C24 4.49681 23.8288 4.21997 23.5576 4.08403L19.2 1.90556V0.799969C19.2 0.358406 18.8416 0 18.4 0C17.9585 0 17.6001 0.358406 17.6001 0.799969V1.90556L13.2425 4.08394C12.9713 4.21997 12.8001 4.49672 12.8001 4.79991V11.5055L10.0425 12.8839C9.77129 13.0199 9.6001 13.2967 9.6001 13.5998V19.9999C9.6 20.4416 9.95841 20.8 10.4 20.8Z" fill="white"/>
<path d="M17.5999 26.4001C17.5999 25.9585 17.2415 25.6001 16.8 25.6001C16.3584 25.6001 16 25.9585 16 26.4001V28.0001C16 28.4417 16.3584 28.8001 16.8 28.8001C17.2415 28.8001 17.5999 28.4417 17.5999 28.0001V26.4001Z" fill="white"/>
<path d="M16.8 40C16.3584 40 16 40.3584 16 40.8V43.9999C16 44.4415 16.3584 44.7999 16.8 44.7999C17.2415 44.7999 17.5999 44.4415 17.5999 43.9999V40.8C17.5999 40.3584 17.2415 40 16.8 40Z" fill="white"/>
<path d="M20.7996 7.19987C20.7996 6.75831 20.4412 6.3999 19.9997 6.3999C19.5581 6.3999 19.1997 6.75831 19.1997 7.19987V8.7999C19.1997 9.24146 19.5581 9.59987 19.9997 9.59987C20.4412 9.59987 20.7996 9.24146 20.7996 8.7999V7.19987Z" fill="white"/>
<path d="M17.5999 21.6003C17.5999 21.1587 17.2415 20.8003 16.8 20.8003C16.3584 20.8003 16 21.1587 16 21.6003V23.2003C16 23.6419 16.3584 24.0003 16.8 24.0003C17.2415 24.0003 17.5999 23.6419 17.5999 23.2003V21.6003Z" fill="white"/>
</svg>
