<svg width="36" height="36" viewBox="0 0 36 36" fill="none" xmlns="http://www.w3.org/2000/svg">
<path d="M35.4012 1.57089e-08C35.4011 1.57089e-08 35.4009 1.57089e-08 35.4009 1.57089e-08H0.600015C0.268732 -7.49861e-05 7.50019e-05 0.268432 0 0.599715C0 0.59979 0 0.59994 0 0.600015V12.6003H1.20003V1.20003H34.8009V14.4004H13.8003V15.6004H35.4009C35.7322 15.6005 36.0008 15.332 36.0009 15.0007C36.0009 15.0006 36.0009 15.0004 36.0009 15.0004V0.600015C36.001 0.268732 35.7325 7.50176e-05 35.4012 1.57089e-08Z" fill="#0D5ADE"/>
<path d="M31.8011 2.99854H19.8008V4.19856H31.8011V2.99854Z" fill="#0D5ADE"/>
<path d="M33.6058 6.60156H21.6055V7.80159H33.6058V6.60156Z" fill="#0D5ADE"/>
<path d="M31.199 10.2021H19.1987V11.4022H31.199V10.2021Z" fill="#0D5ADE"/>
<path d="M19.1526 5.17253C18.7418 4.18513 17.6084 3.71772 16.6211 4.12851C16.6042 4.13556 16.5874 4.14276 16.5708 4.15026L11.7055 6.67407C11.8974 6.27641 11.9981 5.84095 12.0003 5.39949C12.0003 3.74262 10.6571 2.39941 9.00022 2.39941C7.34336 2.39941 6.00015 3.74262 6.00015 5.39949C6.0024 6.05073 6.21863 6.68322 6.61554 7.19953H6.59056C4.88742 7.21093 3.36706 8.26973 2.76577 9.8633L1.16403 15.3841C0.782719 16.3746 1.27653 17.4867 2.26708 17.868C2.71874 18.0419 3.21938 18.0389 3.66902 17.8598C4.18563 17.6516 4.58764 17.2313 4.77267 16.706L5.40013 14.7091V23.393C4.88382 22.9962 4.25133 22.78 3.60009 22.7776C1.9457 22.7752 0.60249 24.1143 0.600015 25.7688C0.598815 26.579 0.925823 27.3552 1.50656 27.9202C0.584939 28.3911 0.0036001 29.3373 1.57089e-08 30.3722V35.4002C-7.49861e-05 35.7315 0.268432 36.0002 0.599715 36.0002C0.59979 36.0002 0.59994 36.0002 0.600015 36.0002H6.60016C6.93145 36.0003 7.2001 35.7318 7.20018 35.4005C7.20018 35.4005 7.20018 35.4003 7.20018 35.4002V30.3722C7.19725 29.5217 6.80214 28.7203 6.12945 28.2001H10.671C9.99827 28.7203 9.60316 29.5217 9.60031 30.3722V35.4002C9.60024 35.7315 9.86874 36.0002 10.2 36.0002C10.2001 36.0002 10.2003 36.0002 10.2003 36.0002H16.2005C16.5318 36.0003 16.8004 35.7318 16.8005 35.4005C16.8005 35.4005 16.8005 35.4003 16.8005 35.4002V30.3722C16.7969 29.3373 16.2155 28.3911 15.2939 27.9202C16.4786 26.7639 16.5016 24.8661 15.3453 23.6815C14.6332 22.9519 13.5992 22.6343 12.6004 22.8383V10.564L18.1086 7.70399C19.0959 7.29328 19.5633 6.15986 19.1526 5.17253ZM9.00022 3.59944C9.99437 3.59944 10.8003 4.40534 10.8003 5.39949C10.8003 6.39364 9.99437 7.19953 9.00022 7.19953C8.00652 7.19848 7.20123 6.39319 7.20018 5.39949C7.20018 4.40534 8.00607 3.59944 9.00022 3.59944ZM3.60009 23.9777C4.59424 23.9777 5.40013 24.7836 5.40013 25.7777C5.40013 26.7719 4.59424 27.5778 3.60009 27.5778C2.60594 27.5778 1.80004 26.7719 1.80004 25.7777C1.80109 24.784 2.60639 23.9788 3.60009 23.9777ZM6.00015 34.8002H1.20003V30.3722C1.20123 29.5043 1.90452 28.8011 2.77244 28.8001H4.42773C5.29558 28.8011 5.99895 29.5043 6.00015 30.3722V34.8002ZM15.6004 30.3722V34.8002H10.8003V30.3722C10.8015 29.5043 11.5048 28.8011 12.3727 28.8001H14.028C14.8959 28.8011 15.5992 29.5043 15.6004 30.3722ZM13.2003 23.9777C14.194 23.9787 14.9993 24.784 15.0004 25.7777C15.0004 26.7719 14.1945 27.5778 13.2003 27.5778C12.2062 27.5778 11.4003 26.7719 11.4003 25.7777C11.4003 24.7836 12.2062 23.9777 13.2003 23.9777ZM18.0547 6.17351C17.9743 6.37961 17.8094 6.54139 17.6017 6.61767L11.7241 9.66694C11.5252 9.77015 11.4003 9.97558 11.4003 10.1996V23.393C10.2764 24.2241 9.88704 25.7281 10.4667 27H9.60024V16.7998H8.40021V27H6.33376C6.50446 26.6228 6.59439 26.214 6.59791 25.8H6.60016V10.7996C6.60009 10.4682 6.33136 10.1996 6 10.1997C5.73802 10.1998 5.50634 10.3698 5.42773 10.6198L3.63609 16.321C3.50034 16.6954 3.0867 16.8889 2.71229 16.7531C2.68604 16.7436 2.66032 16.7326 2.63527 16.72C2.28913 16.5412 2.1422 16.1236 2.30016 15.7673L3.90182 10.2465C4.33376 9.13721 5.40006 8.40474 6.59049 8.39956H10.839C10.9351 8.39971 11.0299 8.37654 11.1153 8.33221L17.0788 5.23666C17.4366 5.08741 17.8489 5.24011 18.0231 5.58647C18.1154 5.76902 18.1269 5.98203 18.0547 6.17351Z" fill="#0D5ADE"/>
<path d="M24.8923 27.9204C26.0791 26.7642 26.1038 24.8648 24.9476 23.678C23.7914 22.4912 21.892 22.4665 20.7052 23.6227C19.5185 24.7789 19.4937 26.6784 20.6499 27.8651C20.6682 27.8838 20.6866 27.9023 20.7053 27.9204C19.7837 28.3913 19.2023 29.3375 19.1987 30.3724V35.4004C19.1987 35.7317 19.4672 36.0004 19.7984 36.0004C19.7985 36.0004 19.7987 36.0004 19.7987 36.0004H25.7989C26.1302 36.0005 26.3988 35.732 26.3989 35.4007C26.3989 35.4006 26.3989 35.4005 26.3989 35.4004V30.3724C26.3953 29.3375 25.814 28.3913 24.8923 27.9204ZM22.7988 23.9779C23.793 23.9779 24.5989 24.7838 24.5989 25.7779C24.5989 26.772 23.793 27.5779 22.7988 27.5779C21.8047 27.5779 20.9988 26.772 20.9988 25.7779C20.9998 24.7842 21.8051 23.979 22.7988 23.9779ZM25.1989 34.8004H20.3988V30.3724C20.4 29.5045 21.1033 28.8013 21.9712 28.8002H23.6265C24.4943 28.8013 25.1977 29.5045 25.1989 30.3724V34.8004Z" fill="#0D5ADE"/>
</svg>
