<svg width="50" height="48" viewBox="0 0 50 48" fill="none" xmlns="http://www.w3.org/2000/svg">
<path d="M43.1101 0H12.8834C9.12407 0.00554156 6.07785 3.05176 6.07231 6.81108V34.4181C2.33289 34.8264 -0.367483 38.1889 0.0408288 41.9283C0.419166 45.3933 3.35241 48.0134 6.83805 47.9999H31.4627C35.222 47.9944 38.2682 44.9482 38.2738 41.1889V13.6222H43.1101C46.8718 13.6222 49.9211 10.5728 49.9211 6.81108C49.9211 3.04937 46.8716 0 43.1101 0ZM26.6365 45.9848H6.83805C4.18654 45.9848 2.03705 43.8353 2.03705 41.1838C2.03705 38.5323 4.18654 36.3828 6.83805 36.3828H26.6365C23.9912 39.0369 23.9912 43.3307 26.6365 45.9848ZM36.2687 6.8107V41.1889C36.2687 43.8376 34.1215 45.9848 31.4728 45.9848C28.824 45.9848 26.6768 43.8376 26.6768 41.1889C26.6768 38.5401 28.824 36.3929 31.4728 36.3929C32.0292 36.3929 32.4803 35.9418 32.4803 35.3854C32.4803 34.8289 32.0292 34.3778 31.4728 34.3778H8.12772V6.81108C8.13314 4.18022 10.2527 2.04269 12.8834 2.01511H38.2436C36.9767 3.28942 36.2666 5.01385 36.2687 6.8107ZM42.1025 11.607H38.2839V9.95465H42.1025V11.607ZM44.1176 11.5063V11.4962V8.94709C44.1176 8.39067 43.6665 7.93954 43.1101 7.93954H38.2839V6.81108C38.2909 4.16234 40.4439 2.0209 43.0927 2.02796C45.7414 2.03501 47.8828 4.18803 47.8758 6.83677C47.8697 9.08085 46.3084 11.0206 44.1176 11.5063Z" fill="white"/>
<path d="M32.2481 9.99463H17.5076C16.9511 9.99463 16.5 10.4458 16.5 11.0022C16.5 11.5586 16.9511 12.0097 17.5076 12.0097H32.2481C32.8045 12.0097 33.2556 11.5586 33.2556 11.0022C33.2556 10.4458 32.8045 9.99463 32.2481 9.99463Z" fill="white"/>
<path d="M32.2481 17.1875H17.5076C16.9511 17.1875 16.5 17.6386 16.5 18.1951C16.5 18.7515 16.9511 19.2026 17.5076 19.2026H32.2481C32.8045 19.2026 33.2556 18.7515 33.2556 18.1951C33.2556 17.6386 32.8045 17.1875 32.2481 17.1875Z" fill="white"/>
<path d="M32.2481 24.3828H17.5076C16.9511 24.3828 16.5 24.8339 16.5 25.3904C16.5 25.9468 16.9511 26.3979 17.5076 26.3979H32.2481C32.8045 26.3979 33.2556 25.9468 33.2556 25.3904C33.2556 24.8339 32.8045 24.3828 32.2481 24.3828Z" fill="white"/>
</svg>
