<svg width="38" height="36" viewBox="0 0 38 36" fill="none" xmlns="http://www.w3.org/2000/svg">
<path d="M32.3325 0H9.66254C6.84305 0.00415617 4.55839 2.28882 4.55423 5.10831V25.8136C1.74967 26.1198 -0.275612 28.6417 0.0306216 31.4462C0.314374 34.045 2.51431 36.0101 5.12854 36H23.597C26.4165 35.9958 28.7012 33.7111 28.7053 30.8917V10.2166H32.3325C35.1538 10.2166 37.4408 7.92959 37.4408 5.10831C37.4408 2.28703 35.1537 0 32.3325 0ZM19.9774 34.4886H5.12854C3.13991 34.4886 1.52779 32.8765 1.52779 30.8879C1.52779 28.8992 3.13991 27.2871 5.12854 27.2871H19.9774C17.9934 29.2776 17.9934 32.498 19.9774 34.4886ZM27.2016 5.10802V30.8917C27.2016 32.8782 25.5911 34.4886 23.6046 34.4886C21.618 34.4886 20.0076 32.8782 20.0076 30.8917C20.0076 28.9051 21.618 27.2947 23.6046 27.2947C24.0219 27.2947 24.3603 26.9563 24.3603 26.539C24.3603 26.1217 24.0219 25.7833 23.6046 25.7833H6.09579V5.10831C6.09985 3.13517 7.68949 1.53202 9.66254 1.51133H28.6827C27.7325 2.46706 27.2 3.76039 27.2016 5.10802ZM31.5769 8.70528H28.7129V7.46599H31.5769V8.70528ZM33.0882 8.62971V8.62216V6.71032C33.0882 6.293 32.7499 5.95465 32.3325 5.95465H28.7129V5.10831C28.7182 3.12175 30.333 1.51568 32.3195 1.52097C34.3061 1.52626 35.9121 3.14102 35.9068 5.12758C35.9023 6.81064 34.7313 8.26548 33.0882 8.62971Z" fill="#0D5ADE"/>
<path d="M24.1861 7.49707H13.1307C12.7133 7.49707 12.375 7.83542 12.375 8.25274C12.375 8.67005 12.7133 9.0084 13.1307 9.0084H24.1861C24.6034 9.0084 24.9417 8.67005 24.9417 8.25274C24.9417 7.83542 24.6034 7.49707 24.1861 7.49707Z" fill="#0D5ADE"/>
<path d="M24.1861 12.8916H13.1307C12.7133 12.8916 12.375 13.23 12.375 13.6473C12.375 14.0646 12.7133 14.4029 13.1307 14.4029H24.1861C24.6034 14.4029 24.9417 14.0646 24.9417 13.6473C24.9417 13.23 24.6034 12.8916 24.1861 12.8916Z" fill="#0D5ADE"/>
<path d="M24.1861 18.2881H13.1307C12.7133 18.2881 12.375 18.6264 12.375 19.0438C12.375 19.4611 12.7133 19.7994 13.1307 19.7994H24.1861C24.6034 19.7994 24.9417 19.4611 24.9417 19.0438C24.9417 18.6264 24.6034 18.2881 24.1861 18.2881Z" fill="#0D5ADE"/>
</svg>
