<svg width="821" height="608" viewBox="0 0 821 608" fill="none" xmlns="http://www.w3.org/2000/svg">
<path d="M803.401 351.078L888.539 351.078L938.736 401.323L1012.09 401.323L1053.51 359.879L1270.6 359.879L1296.04 385.339L1363.35 385.339L1363.35 387.962L1294.95 387.962L1269.5 362.509L1054.59 362.509L1013.17 403.952L937.648 403.952L887.439 353.707L804.488 353.707L729.984 428.259L538.13 428.259L484.102 482.331L462.357 482.331L425.046 519.662L357.537 519.662L273.558 603.708L271.694 601.85L356.45 517.033L423.965 517.033L461.263 479.702L483.021 479.702L537.056 425.636L728.896 425.636L803.401 351.078Z" fill="white" fill-opacity="0.5"/>
<path d="M269.309 599.109C267.374 601.046 267.374 604.161 269.309 606.097C271.225 608.027 274.358 608.027 276.293 606.097C278.228 604.161 278.228 601.039 276.293 599.109C274.358 597.186 271.225 597.186 269.309 599.109Z" fill="white" fill-opacity="0.5"/>
<path d="M245.235 3.8381L302.214 60.8706L342.424 60.8706L412.541 131.038L446.415 131.038L493.744 83.6745L553.764 83.6746L612.847 142.812L705.039 142.812L750.349 97.4761L851.784 97.4761L904.09 149.813L1002.21 149.813L1013.45 138.576L1077.05 138.576L1104.4 165.94L1245.69 165.94L1266.8 144.813L1372 144.813L1372 147.436L1267.88 147.436L1246.78 168.563L1103.31 168.563L1075.97 141.206L1014.53 141.206L1003.3 152.449L903.009 152.449L850.696 100.099L751.43 100.099L706.12 145.435L611.753 145.435L552.658 86.3105L494.831 86.3105L447.502 133.661L411.453 133.661L341.336 63.4936L301.126 63.4936L243.371 5.69686L245.235 3.8381Z" fill="white" fill-opacity="0.5"/>
<path d="M247.971 1.44758C246.035 -0.482428 242.909 -0.482428 240.981 1.44758C239.052 3.37111 239.052 6.50578 240.981 8.43579C242.909 10.3658 246.035 10.3658 247.971 8.43579C249.899 6.51226 249.899 3.37111 247.971 1.44758Z" fill="white" fill-opacity="0.5"/>
<path d="M48.5808 101.822L94.9456 148.226L287.861 148.226L343.247 203.653L420.865 203.653L463.431 246.249L524.74 246.249L556.543 214.423L614.745 214.423L644.244 243.95L716.244 243.95L735.194 224.986L817.478 224.986L867.279 274.823L979.884 274.823L1024.81 229.863L1102.23 229.863L1159.89 287.556L1357.93 287.556L1357.93 290.186L1158.8 290.186L1101.15 232.486L1025.9 232.486L980.965 277.453L866.192 277.453L816.397 227.609L736.281 227.609L717.331 246.573L643.15 246.573L613.657 217.046L557.636 217.046L525.82 248.878L462.35 248.878L419.771 206.282L342.173 206.282L286.786 150.856L93.8584 150.856L46.7168 103.681L48.5808 101.822Z" fill="white" fill-opacity="0.5"/>
<path d="M51.3241 99.4368C49.3954 97.5068 46.263 97.5068 44.3344 99.4368C42.4188 101.367 42.3993 104.495 44.3344 106.418C46.263 108.348 49.3954 108.348 51.3241 106.418C53.2527 104.495 53.2527 101.367 51.3241 99.4368Z" fill="white" fill-opacity="0.5"/>
<path d="M744.93 263.305L809.494 263.305L853.205 307.061L999.096 307.061L1038.34 267.781L1087.61 267.781L1149.86 330.085L1270.04 330.085L1299.28 359.34L1356.85 359.34L1356.85 361.963L1298.19 361.963L1268.96 332.708L1148.77 332.708L1086.52 270.41L1039.42 270.41L1000.18 309.684L852.118 309.684L808.413 265.941L746.024 265.941L711.03 300.947L599.849 300.947L567.535 268.61L436.362 268.61L358.854 346.173L204.66 346.173L171.958 378.886L170.113 377.034L203.567 343.543L357.773 343.543L435.268 265.987L568.622 265.987L600.936 298.318L709.943 298.318L744.93 263.305Z" fill="white" fill-opacity="0.5"/>
<path d="M167.713 374.296C165.785 376.226 165.785 379.354 167.713 381.284C169.648 383.214 172.774 383.214 174.703 381.284C176.632 379.354 176.632 376.226 174.703 374.296C172.781 372.366 169.648 372.366 167.713 374.296Z" fill="white" fill-opacity="0.5"/>
<path d="M755.309 288.474L813.712 288.474L858.303 333.085L1003.14 333.085L1042.09 294.122L1074.45 294.122L1111.56 331.239L1109.71 333.104L1073.38 296.745L1043.17 296.745L1004.23 335.714L857.209 335.714L812.631 291.097L756.396 291.097L713.183 334.341L590.223 334.341L590.223 331.718L712.089 331.718L755.309 288.474Z" fill="white" fill-opacity="0.5"/>
<path d="M590.473 328.093C587.748 328.093 585.534 330.308 585.534 333.035C585.534 335.761 587.741 337.976 590.473 337.976C593.197 337.976 595.411 335.761 595.411 333.035C595.411 330.308 593.204 328.093 590.473 328.093Z" fill="white" fill-opacity="0.5"/>
<path d="M786.547 320.395L788.398 322.254L717.097 393.612L494.372 393.612L431.776 456.254L305.139 456.254L254.179 507.244L188.684 507.244L140.636 555.312L51.6147 555.312L51.6147 552.683L139.555 552.683L187.59 504.614L253.092 504.614L304.046 453.624L430.682 453.624L493.278 390.989L716.003 390.989L786.547 320.395Z" fill="white" fill-opacity="0.5"/>
<path d="M783.802 318.008C785.737 316.078 788.863 316.078 790.785 318.008C792.721 319.938 792.721 323.066 790.785 324.996C788.87 326.926 785.737 326.926 783.802 324.996C781.874 323.066 781.874 319.938 783.802 318.008Z" fill="white" fill-opacity="0.5"/>
<path d="M51.8659 549.065C49.1477 549.065 46.9278 551.274 46.9278 554C46.9278 556.727 49.1413 558.948 51.8659 558.948C54.6036 558.948 56.8169 556.727 56.8169 554C56.8169 551.274 54.6036 549.065 51.8659 549.065Z" fill="white" fill-opacity="0.5"/>
<path d="M757.428 311.659L759.286 313.518L695.984 376.859L573.347 376.859L536.587 340.085L465.253 340.085L410.844 394.527L268.507 394.527L268.507 391.897L409.763 391.897L464.166 337.455L537.681 337.455L574.428 374.236L694.896 374.236L757.428 311.659Z" fill="white" fill-opacity="0.5"/>
<path d="M754.695 309.269C756.623 307.332 759.749 307.332 761.678 309.269C763.607 311.199 763.607 314.327 761.678 316.257C759.749 318.187 756.623 318.187 754.695 316.257C752.766 314.327 752.766 311.199 754.695 309.269Z" fill="white" fill-opacity="0.5"/>
<path d="M268.769 388.272C266.051 388.272 263.831 390.487 263.831 393.214C263.831 395.94 266.051 398.155 268.769 398.155C271.494 398.155 273.707 395.94 273.707 393.214C273.707 390.487 271.494 388.272 268.769 388.272Z" fill="white" fill-opacity="0.5"/>
<path d="M483.092 361.86L525.528 361.86L525.528 364.49L484.173 364.49L427.414 421.296L260.011 421.296L218.513 462.817L159.56 462.817L126.502 495.893L124.651 494.034L158.473 460.187L217.426 460.187L258.917 418.673L426.327 418.673L483.092 361.86Z" fill="white" fill-opacity="0.5"/>
<path d="M525.285 358.233C528.009 358.233 530.223 360.441 530.223 363.168C530.223 365.895 528.016 368.11 525.285 368.11C522.553 368.11 520.353 365.895 520.353 363.168C520.353 360.441 522.553 358.233 525.285 358.233Z" fill="white" fill-opacity="0.5"/>
<path d="M122.263 491.293C120.334 493.223 120.334 496.351 122.263 498.281C124.198 500.212 127.317 500.212 129.253 498.281C131.168 496.351 131.168 493.23 129.253 491.293C127.311 489.363 124.191 489.363 122.263 491.293Z" fill="white" fill-opacity="0.5"/>
<path d="M441.606 288.293L548.963 288.293L578.08 317.424L660.183 317.424L660.183 320.054L576.98 320.054L547.862 290.916L442.694 290.916L372.823 360.843L248.872 360.843L248.872 358.214L371.735 358.214L441.606 288.293Z" fill="white" fill-opacity="0.5"/>
<path d="M659.93 313.796C662.654 313.796 664.868 316.005 664.868 318.731C664.868 321.458 662.661 323.673 659.93 323.673C657.205 323.673 654.991 321.452 654.991 318.731C654.998 316.011 657.205 313.796 659.93 313.796Z" fill="white" fill-opacity="0.5"/>
<path d="M249.121 354.586C246.383 354.586 244.176 356.801 244.176 359.528C244.176 362.254 246.383 364.469 249.121 364.469C251.846 364.469 254.059 362.254 254.059 359.528C254.053 356.801 251.846 354.586 249.121 354.586Z" fill="white" fill-opacity="0.5"/>
<path d="M453.979 310.869L540.949 310.869L578.803 348.744L682.742 348.744L682.742 351.374L577.709 351.374L539.868 313.499L455.06 313.499L391.745 376.859L236.717 376.859L175.932 437.68L122.947 437.68L122.947 435.051L174.845 435.051L235.623 374.236L390.651 374.236L453.979 310.869Z" fill="white" fill-opacity="0.5"/>
<path d="M682.5 345.119C685.212 345.119 687.432 347.334 687.432 350.061C687.432 352.787 685.219 355.002 682.5 355.002C679.763 355.002 677.562 352.787 677.562 350.061C677.569 347.334 679.769 345.119 682.5 345.119Z" fill="white" fill-opacity="0.5"/>
<path d="M123.187 431.431C120.469 431.431 118.262 433.64 118.262 436.373C118.262 439.1 120.469 441.308 123.187 441.308C125.925 441.308 128.132 439.1 128.132 436.373C128.132 433.64 125.918 431.431 123.187 431.431Z" fill="white" fill-opacity="0.5"/>
<path d="M506.384 408.472L711.855 408.472L711.855 411.102L507.471 411.102L428.138 490.491L345.899 490.491L293.121 543.295L209.057 543.295L153.619 598.773L151.768 596.914L207.97 540.672L292.034 540.672L344.799 487.862L427.044 487.862L506.384 408.472Z" fill="white" fill-opacity="0.5"/>
<path d="M711.606 404.844C714.331 404.844 716.544 407.059 716.544 409.786C716.544 412.513 714.337 414.728 711.606 414.728C708.881 414.728 706.661 412.513 706.661 409.786C706.661 407.059 708.881 404.844 711.606 404.844Z" fill="white" fill-opacity="0.5"/>
<path d="M149.382 594.174C147.447 596.11 147.447 599.238 149.382 601.162C151.298 603.092 154.43 603.092 156.365 601.162C158.294 599.232 158.294 596.11 156.365 594.174C154.43 592.244 151.298 592.244 149.382 594.174Z" fill="white" fill-opacity="0.5"/>
<path d="M99.6681 112.771L348.779 112.771L395.39 159.415L448.201 159.415L484.547 123.043L537.94 123.043L587.535 172.66L708.916 172.66L764.037 117.486L847.732 117.486L891.767 161.552L1064.28 161.552L1086.83 184.13L1202.43 184.13L1202.43 186.759L1085.75 186.759L1063.19 164.182L890.686 164.182L846.651 120.115L765.124 120.115L709.996 175.289L586.441 175.289L536.866 125.666L485.628 125.666L449.288 162.038L394.296 162.038L347.692 115.407L99.6681 115.407L99.6681 112.771Z" fill="white" fill-opacity="0.5"/>
<path d="M99.9106 109.152C97.1729 109.152 94.9594 111.36 94.9594 114.1C94.9594 116.826 97.1794 119.035 99.9106 119.035C102.642 119.035 104.849 116.826 104.849 114.1C104.849 111.36 102.642 109.152 99.9106 109.152Z" fill="white" fill-opacity="0.5"/>
<path d="M106.934 127.246L295.002 127.246L356.078 188.365L436.278 188.365L462.347 214.453L511.935 214.453L534.043 192.323L625.931 192.323L650.13 216.545L672.697 216.545L692.708 196.513L818.264 196.513L868.486 246.771L956.187 246.771L992.579 210.36L1078.69 210.36L1078.69 212.983L993.666 212.983L957.281 249.394L867.392 249.394L817.17 199.142L693.796 199.142L673.791 219.174L649.042 219.174L624.844 194.959L535.123 194.959L513.022 217.076L461.253 217.076L435.19 190.995L354.99 190.995L293.921 129.882L106.934 129.882L106.934 127.246Z" fill="white" fill-opacity="0.5"/>
<path d="M107.187 123.621C104.462 123.621 102.248 125.836 102.248 128.562C102.248 131.296 104.455 133.51 107.187 133.51C109.911 133.51 112.125 131.296 112.125 128.562C112.125 125.836 109.911 123.621 107.187 123.621Z" fill="white" fill-opacity="0.5"/>
<path d="M759.088 158.276L805.531 158.276L867.027 219.822L942.373 219.822L967.84 194.331L1062.68 194.331L1062.68 196.967L968.934 196.967L943.454 222.452L865.94 222.452L804.437 160.905L759.088 160.905L759.088 158.276Z" fill="white" fill-opacity="0.5"/>
<path d="M759.335 154.657C756.604 154.657 754.397 156.865 754.397 159.592C754.397 162.318 756.604 164.54 759.335 164.54C762.06 164.54 764.273 162.325 764.273 159.592C764.273 156.865 762.06 154.657 759.335 154.657Z" fill="white" fill-opacity="0.5"/>
<path d="M424.073 243.19L425.924 245.049L362.622 308.396L191.588 308.396L139.606 360.416L137.748 358.557L190.495 305.773L361.541 305.773L424.073 243.19Z" fill="white" fill-opacity="0.5"/>
<path d="M421.336 240.803C423.264 238.873 426.39 238.873 428.325 240.803C430.254 242.733 430.254 245.861 428.325 247.791C426.39 249.721 423.264 249.721 421.336 247.791C419.401 245.867 419.401 242.733 421.336 240.803Z" fill="white" fill-opacity="0.5"/>
<path d="M135.363 355.811C133.434 357.748 133.434 360.876 135.363 362.8C137.279 364.73 140.424 364.73 142.353 362.8C144.268 360.87 144.268 357.741 142.353 355.811C140.424 353.894 137.285 353.894 135.363 355.811Z" fill="white" fill-opacity="0.5"/>
<path d="M5.68037 132.85L54.757 181.949L106.422 181.949L130.446 205.983L183.225 205.983L210.873 178.309L281.837 178.309L329.872 226.384L407.619 226.384L407.619 229.014L328.791 229.014L280.744 180.938L211.96 180.938L184.305 208.613L129.359 208.613L105.341 184.585L53.6567 184.585L3.82932 134.702L5.68037 132.85Z" fill="white" fill-opacity="0.5"/>
<path d="M407.369 222.756C410.094 222.756 412.313 224.965 412.313 227.691C412.313 230.418 410.094 232.633 407.369 232.633C404.651 232.633 402.431 230.418 402.431 227.691C402.431 224.965 404.644 222.756 407.369 222.756Z" fill="white" fill-opacity="0.5"/>
<path d="M8.42651 130.46C6.4914 128.529 3.37189 128.529 1.43678 130.46C-0.478911 132.383 -0.478911 135.518 1.43678 137.448C3.37189 139.378 6.4914 139.378 8.42651 137.448C10.3422 135.518 10.3422 132.383 8.42651 130.46Z" fill="white" fill-opacity="0.5"/>
<path d="M209.424 241.312L252.359 241.312L287.663 276.635L351.36 276.635L380.406 247.562L382.27 249.42L352.441 279.271L286.57 279.271L251.278 243.941L210.512 243.941L177.214 277.263L128.991 277.263L101.492 304.782L99.628 302.93L127.91 274.634L176.12 274.634L209.424 241.312Z" fill="white" fill-opacity="0.5"/>
<path d="M377.663 245.173C379.598 243.243 382.724 243.243 384.653 245.173C386.581 247.103 386.581 250.231 384.653 252.161C382.724 254.091 379.598 254.091 377.663 252.161C375.735 250.231 375.735 247.103 377.663 245.173Z" fill="white" fill-opacity="0.5"/>
<path d="M97.2445 300.183C95.3288 302.113 95.3288 305.241 97.2445 307.171C99.1796 309.101 102.299 309.101 104.234 307.171C106.163 305.241 106.163 302.113 104.234 300.183C102.293 298.259 99.1731 298.259 97.2445 300.183Z" fill="white" fill-opacity="0.5"/>
<path d="M148.284 290.469L225.656 290.469L225.656 293.112L149.378 293.112L91.9398 350.585L90.0758 348.726L148.284 290.469Z" fill="white" fill-opacity="0.5"/>
<path d="M225.405 286.848C228.13 286.848 230.336 289.063 230.336 291.789C230.336 294.516 228.136 296.731 225.405 296.731C222.687 296.731 220.467 294.516 220.467 291.789C220.473 289.063 222.687 286.848 225.405 286.848Z" fill="white" fill-opacity="0.5"/>
<path d="M87.695 345.986C85.7534 347.916 85.7534 351.051 87.695 352.981C89.6107 354.911 92.7432 354.911 94.6654 352.981C96.607 351.051 96.607 347.916 94.6654 345.986C92.7432 344.056 89.6107 344.056 87.695 345.986Z" fill="white" fill-opacity="0.5"/>
<path d="M184.673 225.658L288.398 225.658L309.497 246.771L353.758 246.771L353.758 249.394L308.41 249.394L287.305 228.281L185.76 228.281L160.662 253.403L108.621 253.403L32.796 329.282L30.9451 327.417L107.521 250.78L159.562 250.78L184.673 225.658Z" fill="white" fill-opacity="0.5"/>
<path d="M353.521 243.147C356.239 243.147 358.453 245.362 358.453 248.089C358.453 250.822 356.246 253.037 353.521 253.037C350.777 253.037 348.57 250.822 348.57 248.089C348.57 245.362 350.777 243.147 353.521 243.147Z" fill="white" fill-opacity="0.5"/>
<path d="M28.5602 324.678C26.6186 326.608 26.6186 329.743 28.5602 331.667C30.4759 333.597 33.6081 333.597 35.5433 331.667C37.4719 329.743 37.4719 326.608 35.5433 324.678C33.6017 322.748 30.4759 322.748 28.5602 324.678Z" fill="white" fill-opacity="0.5"/>
<path d="M223.392 199.433L284.028 199.433L308.019 223.442L306.162 225.3L282.94 202.056L223.392 202.056L223.392 199.433Z" fill="white" fill-opacity="0.5"/>
<path d="M310.411 220.703C312.34 222.633 312.34 225.762 310.411 227.692C308.476 229.622 305.357 229.622 303.428 227.692C301.499 225.762 301.499 222.627 303.428 220.703C305.357 218.773 308.476 218.773 310.411 220.703Z" fill="white" fill-opacity="0.5"/>
<path d="M223.635 195.8C220.917 195.8 218.691 198.015 218.691 200.741C218.691 203.468 220.917 205.676 223.635 205.676C226.36 205.676 228.573 203.468 228.573 200.741C228.573 198.008 226.366 195.8 223.635 195.8Z" fill="white" fill-opacity="0.5"/>
<path d="M51.6104 8.59662L125.345 8.59662L139.169 22.437L219.24 22.437L278.93 82.1702L342.109 82.1702L342.109 84.7932L277.837 84.7932L218.165 25.06L138.088 25.06L124.258 11.2261L51.6104 11.2261L51.6104 8.59662Z" fill="white" fill-opacity="0.5"/>
<path d="M341.861 78.5362C344.599 78.5362 346.799 80.7512 346.799 83.4778C346.799 86.2044 344.599 88.4194 341.861 88.4194C339.143 88.4194 336.923 86.2044 336.923 83.4778C336.93 80.7512 339.143 78.5362 341.861 78.5362Z" fill="white" fill-opacity="0.5"/>
<path d="M51.8659 4.97043C49.1477 4.97043 46.9278 7.18541 46.9278 9.90556C46.9278 12.6322 49.1413 14.8472 51.8659 14.8472C54.6036 14.8472 56.8169 12.6322 56.8169 9.90556C56.8169 7.18541 54.6036 4.97043 51.8659 4.97043Z" fill="white" fill-opacity="0.5"/>
<path d="M6.49421 35.9082L122.801 35.9082L134.82 47.9222L201.047 47.9222L252.731 99.644L326.097 99.644L326.097 102.273L251.638 102.273L199.966 50.5517L133.732 50.5517L121.72 38.5377L6.49421 38.5377L6.49421 35.9082Z" fill="white" fill-opacity="0.5"/>
<path d="M325.846 96.0186C328.57 96.0186 330.777 98.2336 330.777 100.96C330.777 103.687 328.577 105.902 325.846 105.902C323.121 105.902 320.908 103.687 320.908 100.96C320.914 98.2336 323.121 96.0186 325.846 96.0186Z" fill="white" fill-opacity="0.5"/>
<path d="M6.74051 32.2827C4.0158 32.2827 1.80246 34.5041 1.80246 37.2307C1.80246 39.9574 4.00933 42.1724 6.74051 42.1724C9.47815 42.1724 11.6787 39.9574 11.6787 37.2307C11.6787 34.4976 9.47816 32.2827 6.74051 32.2827Z" fill="white" fill-opacity="0.5"/>
<path d="M81.7468 53.8155L115.886 87.9858L197.996 87.9858L197.996 90.6152L114.799 90.6152L79.8828 55.6678L81.7468 53.8155Z" fill="white" fill-opacity="0.5"/>
<path d="M197.74 84.358C200.478 84.358 202.685 86.573 202.685 89.2996C202.685 92.0262 200.478 94.2412 197.74 94.2412C195.022 94.2412 192.809 92.0262 192.809 89.2996C192.815 86.573 195.022 84.358 197.74 84.358Z" fill="white" fill-opacity="0.5"/>
<path d="M84.473 51.4271C82.5573 49.5035 79.4313 49.5035 77.5027 51.4271C75.5741 53.3571 75.5741 56.4788 77.5027 58.4153C79.4378 60.3453 82.5573 60.3453 84.473 58.4153C86.4081 56.4853 86.4081 53.3571 84.473 51.4271Z" fill="white" fill-opacity="0.5"/>
<path d="M934.41 390.305L1058.39 390.305L1152.33 484.306L1211.17 484.306L1241.37 454.093L1362.25 454.093L1362.25 455.77L1242.06 455.77L1211.87 485.983L1151.63 485.983L1057.69 391.983L935.102 391.983L890.226 436.891L758.147 436.891L715.995 479.06L599.52 479.06L599.52 477.382L715.303 477.382L757.454 435.214L889.546 435.214L934.41 390.305Z" fill="white" fill-opacity="0.5"/>
<path d="M599.706 474.437C597.615 474.437 595.926 476.134 595.926 478.226C595.926 480.311 597.615 482.008 599.706 482.008C601.796 482.008 603.485 480.311 603.485 478.226C603.492 476.134 601.803 474.437 599.706 474.437Z" fill="white" fill-opacity="0.5"/>
<path d="M881.67 107.772L985.946 107.772L1060.17 182.045L1105.61 182.045L1121.54 166.1L1173.64 166.1L1173.64 167.784L1122.23 167.783L1106.3 183.729L1059.48 183.729L985.247 109.449L882.356 109.449L857.42 134.423L704.566 134.423L658.538 180.478L526.064 180.478L480.307 134.682L157.636 134.682L157.636 133.004L481 133.004L526.769 178.8L657.852 178.8L703.873 132.739L856.727 132.739L881.67 107.772Z" fill="white" fill-opacity="0.5"/>
<path d="M157.817 130.051C155.733 130.051 154.037 131.754 154.037 133.839C154.037 135.931 155.733 137.628 157.817 137.628C159.914 137.628 161.603 135.931 161.603 133.839C161.609 131.754 159.92 130.051 157.817 130.051Z" fill="white" fill-opacity="0.5"/>
<path d="M246.014 36.5233L433.991 36.5233L504.431 107.027L669.912 107.027L669.912 108.698L503.732 108.698L433.292 38.2007L246.014 38.2007L246.014 36.5233Z" fill="white" fill-opacity="0.5"/>
<path d="M669.72 104.075C671.811 104.075 673.5 105.766 673.5 107.864C673.5 109.956 671.811 111.653 669.72 111.653C667.63 111.653 665.928 109.956 665.928 107.864C665.928 105.772 667.624 104.075 669.72 104.075Z" fill="white" fill-opacity="0.5"/>
<path d="M246.203 33.5776C244.119 33.5776 242.43 35.2744 242.43 37.3663C242.43 39.4583 244.119 41.1487 246.203 41.1487C248.293 41.1487 249.989 39.4583 249.989 37.3663C249.989 35.2744 248.293 33.5776 246.203 33.5776Z" fill="white" fill-opacity="0.5"/>
<path d="M1151.01 151.709L1307.36 151.709L1307.36 154.85L1152.31 154.85L1082.12 225.088L815.394 225.088L713.921 326.621L332.834 326.621L332.834 323.486L712.633 323.486L814.093 221.947L1080.82 221.947L1151.01 151.709Z" fill="white" fill-opacity="0.5"/>
<path d="M333.122 319.153C329.866 319.153 327.226 321.796 327.226 325.053C327.226 328.311 329.866 330.954 333.122 330.954C336.377 330.954 339.018 328.311 339.018 325.053C339.018 321.796 336.377 319.153 333.122 319.153Z" fill="white" fill-opacity="0.5"/>
<path d="M1139.67 292.058L1141.88 294.273L1066.16 370.048L934.074 370.048L888.454 415.702L512.772 415.702L512.772 412.567L887.153 412.567L932.774 366.914L1064.87 366.914L1139.67 292.058Z" fill="white" fill-opacity="0.5"/>
<path d="M513.07 408.234C509.815 408.234 507.175 410.877 507.175 414.135C507.175 417.392 509.815 420.035 513.07 420.035C516.326 420.035 518.966 417.399 518.966 414.135C518.966 410.877 516.326 408.234 513.07 408.234Z" fill="white" fill-opacity="0.5"/>
<path d="M767.288 269.2L842.194 269.2L873.796 300.825L871.57 303.04L840.899 272.341L767.288 272.341L767.288 269.2Z" fill="white" fill-opacity="0.5"/>
<path d="M775.809 192.576L931.523 192.576L960.815 221.895L958.602 224.117L930.223 195.71L777.103 195.71L680.109 292.781L538.302 292.781L538.302 289.64L678.814 289.64L775.809 192.576Z" fill="white" fill-opacity="0.5"/>
<path d="M538.594 285.307C535.339 285.307 532.705 287.949 532.705 291.207C532.705 294.464 535.339 297.107 538.594 297.107C541.85 297.107 544.49 294.464 544.49 291.207C544.49 287.949 541.85 285.307 538.594 285.307Z" fill="white" fill-opacity="0.5"/>
<path d="M599.561 371.373L800.081 371.373L841.365 412.706L839.152 414.921L798.78 374.508L599.561 374.508L599.561 371.373Z" fill="white" fill-opacity="0.5"/>
<path d="M599.848 367.041C596.599 367.041 593.958 369.683 593.958 372.941C593.958 376.199 596.599 378.841 599.848 378.841C603.109 378.841 605.75 376.199 605.75 372.941C605.75 369.683 603.109 367.041 599.848 367.041Z" fill="white" fill-opacity="0.5"/>
<path d="M578.811 324.58L581.025 326.801L552.49 355.35L397.921 355.35L397.921 352.215L551.196 352.215L578.811 324.58Z" fill="white" fill-opacity="0.5"/>
<path d="M398.213 347.89C394.958 347.89 392.324 350.532 392.324 353.79C392.324 357.048 394.958 359.69 398.213 359.69C401.475 359.69 404.116 357.048 404.116 353.79C404.116 350.532 401.475 347.89 398.213 347.89Z" fill="white" fill-opacity="0.5"/>
<path d="M349.206 219.674L384.031 254.518L609.287 254.518L644.837 290.094L642.624 292.315L607.979 257.653L382.731 257.653L346.986 221.889L349.206 219.674Z" fill="white" fill-opacity="0.5"/>
<path d="M352.475 216.819C350.171 214.514 346.436 214.514 344.132 216.819C341.828 219.125 341.835 222.856 344.132 225.155C346.436 227.46 350.171 227.46 352.475 225.155C354.779 222.862 354.779 219.125 352.475 216.819Z" fill="white" fill-opacity="0.5"/>
<path d="M463.268 422.248L486.133 445.13L732.765 445.13L766.892 479.287L912.995 479.287L969.327 422.915L971.547 425.137L914.296 482.428L765.591 482.428L731.458 448.264L484.832 448.264L461.048 424.47L463.268 422.248Z" fill="white" fill-opacity="0.5"/>
<path d="M466.526 419.397C464.229 417.092 460.507 417.092 458.197 419.397C455.893 421.703 455.893 425.44 458.197 427.739C460.507 430.045 464.235 430.045 466.526 427.739C468.83 425.433 468.83 421.703 466.526 419.397Z" fill="white" fill-opacity="0.5"/>
<path d="M775.778 317.683L789.861 331.783L913.002 331.783L913.002 334.917L788.566 334.917L773.551 319.905L775.778 317.683Z" fill="white" fill-opacity="0.5"/>
<path d="M779.044 314.826C776.74 312.521 773.006 312.521 770.702 314.826C768.398 317.132 768.398 320.869 770.702 323.168C773.006 325.474 776.74 325.474 779.044 323.168C781.342 320.869 781.342 317.132 779.044 314.826Z" fill="white" fill-opacity="0.5"/>
<path d="M769.42 446.003L841.303 446.003L874.912 479.648L872.692 481.863L840.003 449.144L769.42 449.144L769.42 446.003Z" fill="white" fill-opacity="0.5"/>
<path d="M769.712 441.677C766.463 441.677 763.816 444.313 763.816 447.577C763.816 450.835 766.463 453.477 769.712 453.477C772.974 453.477 775.615 450.835 775.615 447.577C775.621 444.313 772.974 441.677 769.712 441.677Z" fill="white" fill-opacity="0.5"/>
<path d="M625.439 349.502L715.341 349.502L737.17 371.348L734.944 373.563L714.046 352.643L625.439 352.643L625.439 349.502Z" fill="white" fill-opacity="0.5"/>
<path d="M625.732 345.176C622.471 345.176 619.836 347.818 619.836 351.076C619.836 354.334 622.471 356.976 625.732 356.976C628.988 356.976 631.628 354.334 631.628 351.076C631.628 347.818 628.988 345.176 625.732 345.176Z" fill="white" fill-opacity="0.5"/>
<path d="M674.975 445.873L677.202 448.095L622.32 503.016L391.298 503.016L349.205 545.139L346.985 542.924L390.004 499.875L621.012 499.875L674.975 445.873Z" fill="white" fill-opacity="0.5"/>
<path d="M344.142 539.653C341.838 541.959 341.838 545.689 344.142 547.989C346.446 550.294 350.18 550.294 352.484 547.989C354.781 545.683 354.781 541.952 352.484 539.653C350.173 537.348 346.439 537.348 344.142 539.653Z" fill="white" fill-opacity="0.5"/>
</svg>
