<svg width="123" height="42" viewBox="0 0 123 42" fill="none" xmlns="http://www.w3.org/2000/svg">
<path d="M21.34 41.72C15.26 41.72 10.18 39.8 6.1 35.96C2.06 32.08 0.0400001 27.1 0.0400001 21.02C0.0400001 14.94 2.06 9.98 6.1 6.14C10.18 2.26 15.26 0.319998 21.34 0.319998C28.82 0.319998 34.4 3.58 38.08 10.1L30.76 13.7C29.88 12.02 28.58 10.64 26.86 9.56C25.18 8.44 23.34 7.88 21.34 7.88C17.7 7.88 14.7 9.12 12.34 11.6C9.98 14.08 8.8 17.22 8.8 21.02C8.8 24.82 9.98 27.96 12.34 30.44C14.7 32.92 17.7 34.16 21.34 34.16C23.34 34.16 25.18 33.62 26.86 32.54C28.58 31.46 29.88 30.06 30.76 28.34L38.08 31.88C34.28 38.44 28.7 41.72 21.34 41.72ZM58.9314 41H43.1514V0.979997H58.9314C65.2114 0.979997 70.3114 2.82 74.2314 6.5C78.1914 10.18 80.1714 15.02 80.1714 21.02C80.1714 27.02 78.2114 31.86 74.2914 35.54C70.3714 39.18 65.2514 41 58.9314 41ZM58.9314 33.5C62.7714 33.5 65.8114 32.3 68.0514 29.9C70.3314 27.5 71.4714 24.54 71.4714 21.02C71.4714 17.34 70.3714 14.34 68.1714 12.02C65.9714 9.66 62.8914 8.48 58.9314 8.48H51.6714V33.5H58.9314ZM122.038 41H113.818L94.7378 14.9V41H86.2178V0.979997H94.9778L113.518 26.12V0.979997H122.038V41Z" fill="black"/>
</svg>
