<svg width="327" height="43" viewBox="0 0 327 43" fill="none" xmlns="http://www.w3.org/2000/svg">
<path d="M20.78 42H12.2V9.48H0.5V1.98H32.42V9.48H20.78V42ZM70.2819 42H60.5019L52.6419 27.78H46.4019V42H37.8819V1.98H56.6019C60.7219 1.98 63.9819 3.18 66.3819 5.58C68.8219 7.98 70.0419 11.08 70.0419 14.88C70.0419 18.16 69.1819 20.82 67.4619 22.86C65.7819 24.9 63.7219 26.2 61.2819 26.76L70.2819 42ZM55.3419 20.28C57.1019 20.28 58.5419 19.8 59.6619 18.84C60.7819 17.84 61.3419 16.52 61.3419 14.88C61.3419 13.24 60.7819 11.94 59.6619 10.98C58.5419 9.98 57.1019 9.48 55.3419 9.48H46.4019V20.28H55.3419ZM104.757 42H76.4366V1.98H104.757V9.48H84.9566V17.94H104.337V25.44H84.9566V34.5H104.757V42ZM147.717 42H137.517L127.497 27.36L117.417 42H107.277L121.797 21.48L108.177 1.98H118.317L127.497 15.66L136.557 1.98H146.817L133.197 21.42L147.717 42ZM158.635 41.22C157.675 42.18 156.535 42.66 155.215 42.66C153.895 42.66 152.755 42.18 151.795 41.22C150.835 40.26 150.355 39.12 150.355 37.8C150.355 36.48 150.835 35.34 151.795 34.38C152.755 33.42 153.895 32.94 155.215 32.94C156.535 32.94 157.675 33.42 158.635 34.38C159.595 35.34 160.075 36.48 160.075 37.8C160.075 39.12 159.595 40.26 158.635 41.22ZM210.227 42H201.647V13.98L190.367 42H186.647L175.367 13.98V42H166.847V1.98H178.787L188.507 26.16L198.227 1.98H210.227V42ZM231.615 42.72C227.135 42.72 223.435 41.32 220.515 38.52C217.595 35.72 216.135 32.04 216.135 27.48C216.135 23.2 217.535 19.6 220.335 16.68C223.175 13.76 226.775 12.3 231.135 12.3C235.455 12.3 238.955 13.78 241.635 16.74C244.315 19.66 245.655 23.5 245.655 28.26V29.94H224.115C224.355 31.86 225.215 33.46 226.695 34.74C228.175 36.02 230.095 36.66 232.455 36.66C233.735 36.66 235.115 36.4 236.595 35.88C238.115 35.36 239.315 34.66 240.195 33.78L243.555 38.7C240.635 41.38 236.655 42.72 231.615 42.72ZM238.275 24.78C238.155 23.14 237.495 21.66 236.295 20.34C235.135 19.02 233.415 18.36 231.135 18.36C228.975 18.36 227.295 19.02 226.095 20.34C224.895 21.62 224.195 23.1 223.995 24.78H238.275ZM278.759 42H271.079V38.28C268.719 41.24 265.739 42.72 262.139 42.72C258.379 42.72 255.299 41.38 252.899 38.7C250.499 35.98 249.299 32.26 249.299 27.54C249.299 22.9 250.499 19.2 252.899 16.44C255.299 13.68 258.379 12.3 262.139 12.3C265.819 12.3 268.799 13.78 271.079 16.74V1.98H278.759V42ZM264.479 35.94C265.759 35.94 267.019 35.64 268.259 35.04C269.499 34.4 270.439 33.6 271.079 32.64V22.38C270.439 21.42 269.499 20.64 268.259 20.04C267.019 19.4 265.759 19.08 264.479 19.08C262.319 19.08 260.559 19.86 259.199 21.42C257.839 22.98 257.159 25.02 257.159 27.54C257.159 30.02 257.839 32.04 259.199 33.6C260.559 35.16 262.319 35.94 264.479 35.94ZM290.095 9.9C288.855 9.9 287.775 9.46 286.855 8.58C285.975 7.66 285.535 6.58 285.535 5.34C285.535 4.1 285.975 3.04 286.855 2.16C287.775 1.28 288.855 0.839997 290.095 0.839997C291.375 0.839997 292.455 1.28 293.335 2.16C294.215 3.04 294.655 4.1 294.655 5.34C294.655 6.58 294.215 7.66 293.335 8.58C292.455 9.46 291.375 9.9 290.095 9.9ZM293.935 42H286.315V13.02H293.935V42ZM326.511 42H318.891V39C316.811 41.48 313.751 42.72 309.711 42.72C307.111 42.72 304.771 41.88 302.691 40.2C300.651 38.48 299.631 36.12 299.631 33.12C299.631 30 300.631 27.66 302.631 26.1C304.671 24.54 307.031 23.76 309.711 23.76C313.831 23.76 316.891 24.94 318.891 27.3V23.4C318.891 21.92 318.311 20.74 317.151 19.86C315.991 18.98 314.451 18.54 312.531 18.54C309.371 18.54 306.551 19.68 304.071 21.96L301.191 16.86C304.631 13.82 308.851 12.3 313.851 12.3C317.571 12.3 320.611 13.16 322.971 14.88C325.331 16.6 326.511 19.4 326.511 23.28V42ZM312.771 37.56C315.611 37.56 317.651 36.72 318.891 35.04V31.44C317.651 29.76 315.611 28.92 312.771 28.92C311.211 28.92 309.911 29.32 308.871 30.12C307.831 30.88 307.311 31.94 307.311 33.3C307.311 34.62 307.831 35.66 308.871 36.42C309.911 37.18 311.211 37.56 312.771 37.56Z" fill="white"/>
</svg>
